<svg width="161" height="167" viewBox="0 0 161 167" fill="none" xmlns="http://www.w3.org/2000/svg">
<g id="Component 2">
<rect id="Rectangle 4138" opacity="0.9" width="161" height="167" rx="33" fill="#8176AF"/>
<path id="&#216;&#180;&#216;&#164;&#217;&#136;&#217;&#134; &#216;&#167;&#217;&#132;&#216;&#183;&#216;&#167;&#217;&#132;&#216;&#168;&#216;&#167;&#216;&#170;" d="M56.723 76.02C56.723 75.7 56.7497 75.36 56.803 75C56.8697 74.6267 56.963 74.2333 57.083 73.82C57.2164 73.3933 57.3764 72.9467 57.563 72.48L59.003 73.04C58.8697 73.4133 58.7497 73.7667 58.643 74.1C58.5497 74.4333 58.4764 74.7467 58.423 75.04C58.383 75.3333 58.363 75.6133 58.363 75.88C58.363 76.5733 58.543 77.1467 58.903 77.6C59.263 78.0533 59.7564 78.3933 60.383 78.62C61.0097 78.8467 61.7164 78.96 62.503 78.96C63.3964 78.96 64.143 78.84 64.743 78.6C65.3564 78.36 65.843 78.04 66.203 77.64C66.563 77.2533 66.8164 76.82 66.963 76.34C67.123 75.86 67.203 75.3867 67.203 74.92C67.203 74.4133 67.103 73.8 66.903 73.08C66.7164 72.36 66.363 71.4667 65.843 70.4L67.343 69.64C67.6097 70.1467 67.8497 70.68 68.063 71.24C68.2897 71.7867 68.4697 72.3533 68.603 72.94C68.7497 73.5133 68.823 74.1 68.823 74.7C68.823 75.22 68.7564 75.7533 68.623 76.3C68.503 76.8467 68.2964 77.3733 68.003 77.88C67.7097 78.4 67.3164 78.86 66.823 79.26C66.343 79.6733 65.743 80 65.023 80.24C64.3164 80.48 63.4697 80.6 62.483 80.6C61.7097 80.6 60.9697 80.5067 60.263 80.32C59.5697 80.1467 58.9564 79.8733 58.423 79.5C57.903 79.1267 57.4897 78.6533 57.183 78.08C56.8764 77.5067 56.723 76.82 56.723 76.02ZM62.763 68.04C62.483 68.04 62.243 67.9467 62.043 67.76C61.8564 67.56 61.763 67.3267 61.763 67.06C61.763 66.7933 61.8564 66.56 62.043 66.36C62.243 66.16 62.483 66.06 62.763 66.06C63.0297 66.06 63.2564 66.16 63.443 66.36C63.643 66.56 63.743 66.7933 63.743 67.06C63.743 67.3267 63.643 67.56 63.443 67.76C63.2564 67.9467 63.0297 68.04 62.763 68.04ZM70.9745 80.6L70.6145 78.96C71.4145 78.8533 72.1478 78.7 72.8145 78.5C73.4945 78.3133 74.0745 78.04 74.5545 77.68C75.0478 77.32 75.4278 76.8467 75.6945 76.26C75.9611 75.6733 76.0945 74.94 76.0945 74.06C76.0945 73.6467 76.0545 73.2533 75.9745 72.88C75.8945 72.4933 75.7745 72.1533 75.6145 71.86C75.4545 71.5667 75.2611 71.3333 75.0345 71.16C74.8211 70.9867 74.5745 70.9 74.2945 70.9C73.9878 70.9 73.7078 71.02 73.4545 71.26C73.2145 71.4867 73.0211 71.78 72.8745 72.14C72.7411 72.5 72.6745 72.86 72.6745 73.22C72.6745 73.5 72.7278 73.7467 72.8345 73.96C72.9545 74.16 73.1478 74.3133 73.4145 74.42C73.6811 74.5267 74.0278 74.58 74.4545 74.58C74.8411 74.58 75.2278 74.54 75.6145 74.46C76.0145 74.38 76.3545 74.2733 76.6345 74.14L76.7145 75.54C76.3945 75.7667 76.0145 75.9267 75.5745 76.02C75.1478 76.1133 74.7145 76.16 74.2745 76.16C73.7678 76.16 73.3145 76.1067 72.9145 76C72.5278 75.8933 72.1945 75.74 71.9145 75.54C71.6478 75.3267 71.4411 75.06 71.2945 74.74C71.1611 74.42 71.0945 74.0467 71.0945 73.62C71.0945 73.1133 71.1745 72.6067 71.3345 72.1C71.4945 71.58 71.7211 71.1067 72.0145 70.68C72.3078 70.2533 72.6611 69.9133 73.0745 69.66C73.4878 69.3933 73.9478 69.26 74.4545 69.26C74.9878 69.26 75.4545 69.4 75.8545 69.68C76.2545 69.9467 76.5878 70.3133 76.8545 70.78C77.1211 71.2467 77.3211 71.7733 77.4545 72.36C77.5878 72.9467 77.6545 73.5533 77.6545 74.18C77.6545 75.42 77.4011 76.4867 76.8945 77.38C76.4011 78.2867 75.6545 79.0067 74.6545 79.54C73.6678 80.0733 72.4411 80.4267 70.9745 80.6ZM79.9198 80.6L79.5598 78.96C80.3598 78.8533 81.0931 78.7 81.7598 78.5C82.4398 78.3133 83.0198 78.04 83.4998 77.68C83.9931 77.32 84.3731 76.8467 84.6398 76.26C84.9064 75.6733 85.0398 74.94 85.0398 74.06C85.0398 73.1533 84.8731 72.4 84.5398 71.8C84.2064 71.2 83.7731 70.9 83.2398 70.9C82.9598 70.9 82.6998 71.0067 82.4598 71.22C82.2198 71.4333 82.0198 71.72 81.8598 72.08C81.7131 72.44 81.6398 72.8333 81.6398 73.26C81.6398 73.5 81.6931 73.7 81.7998 73.86C81.9064 74.0067 82.0598 74.1267 82.2598 74.22C82.4731 74.3 82.7398 74.36 83.0598 74.4C83.3798 74.44 83.7531 74.46 84.1798 74.46H88.3998C88.6798 74.46 88.8798 74.54 88.9998 74.7C89.1331 74.8467 89.1998 75.0267 89.1998 75.24C89.1998 75.4533 89.1064 75.6533 88.9198 75.84C88.7331 76.0133 88.4931 76.1 88.1998 76.1H83.4198C82.8198 76.1 82.2598 76.0133 81.7398 75.84C81.2331 75.6667 80.8198 75.4 80.4998 75.04C80.1931 74.6667 80.0398 74.18 80.0398 73.58C80.0398 73.02 80.1264 72.4867 80.2998 71.98C80.4731 71.46 80.7064 71 80.9998 70.6C81.3064 70.1867 81.6598 69.86 82.0598 69.62C82.4731 69.38 82.9198 69.26 83.3998 69.26C84.0131 69.26 84.5598 69.44 85.0398 69.8C85.5198 70.16 85.8998 70.7067 86.1798 71.44C86.4598 72.16 86.5998 73.0733 86.5998 74.18C86.5998 75.42 86.3464 76.4867 85.8398 77.38C85.3464 78.2867 84.5998 79.0067 83.5998 79.54C82.6131 80.0733 81.3864 80.4267 79.9198 80.6ZM81.5998 67.18L81.3598 66.1C81.7064 66.02 81.9864 65.9533 82.1998 65.9C82.4131 65.8467 82.6531 65.7867 82.9198 65.72L82.8198 66.14C82.4731 66.0333 82.1398 65.8067 81.8198 65.46C81.5131 65.1133 81.3598 64.72 81.3598 64.28C81.3598 63.88 81.4531 63.5467 81.6398 63.28C81.8398 63 82.0931 62.7933 82.3998 62.66C82.7198 62.5267 83.0598 62.46 83.4198 62.46C83.5664 62.46 83.7198 62.4733 83.8798 62.5C84.0531 62.5267 84.2131 62.5667 84.3598 62.62L84.1998 63.62C84.0664 63.5933 83.9398 63.5667 83.8198 63.54C83.6998 63.5133 83.5664 63.5 83.4198 63.5C83.1131 63.5 82.8731 63.5667 82.6998 63.7C82.5264 63.82 82.4398 63.9933 82.4398 64.22C82.4398 64.5 82.5264 64.74 82.6998 64.94C82.8864 65.14 83.0931 65.3 83.3198 65.42C83.5598 65.5267 83.7531 65.58 83.8998 65.58L83.0798 65.66C83.4398 65.5667 83.7731 65.4733 84.0798 65.38C84.3998 65.2733 84.6864 65.1733 84.9398 65.08L85.2598 66.1C84.9398 66.22 84.5598 66.3467 84.1198 66.48C83.6931 66.6133 83.2598 66.74 82.8198 66.86C82.3798 66.98 81.9731 67.0867 81.5998 67.18ZM88.1934 76.1L88.3934 74.46C88.82 74.46 89.1667 74.4333 89.4334 74.38C89.7 74.3133 89.92 74.16 90.0934 73.92C90.28 73.6667 90.4534 73.2733 90.6134 72.74C90.7734 72.2067 90.96 71.46 91.1734 70.5L92.6734 70.92C92.62 71.1467 92.56 71.4067 92.4934 71.7C92.4267 71.98 92.3667 72.2733 92.3134 72.58C92.26 72.8733 92.2334 73.1467 92.2334 73.4C92.2334 73.7333 92.36 73.9933 92.6134 74.18C92.8667 74.3667 93.3267 74.46 93.9934 74.46C94.3934 74.46 94.72 74.4267 94.9734 74.36C95.2267 74.2933 95.4334 74.1333 95.5934 73.88C95.7667 73.6267 95.92 73.22 96.0534 72.66C96.1867 72.1 96.3267 71.3333 96.4734 70.36L97.9934 70.64C97.9534 70.88 97.9067 71.1733 97.8534 71.52C97.8 71.8667 97.7467 72.2133 97.6934 72.56C97.6534 72.8933 97.6334 73.1733 97.6334 73.4C97.6334 73.5867 97.6734 73.7667 97.7534 73.94C97.8467 74.1 98.02 74.2267 98.2734 74.32C98.54 74.4133 98.9334 74.46 99.4534 74.46C99.84 74.46 100.173 74.4133 100.453 74.32C100.747 74.2267 100.967 74.0533 101.113 73.8C101.273 73.5467 101.353 73.1933 101.353 72.74C101.353 72.2333 101.233 71.6 100.993 70.84C100.767 70.0667 100.507 69.3 100.213 68.54L101.833 67.94C102.007 68.3667 102.167 68.8533 102.313 69.4C102.473 69.9467 102.607 70.4867 102.713 71.02C102.82 71.5533 102.873 72.02 102.873 72.42C102.873 73.0333 102.793 73.5733 102.633 74.04C102.473 74.5067 102.247 74.8933 101.953 75.2C101.66 75.4933 101.3 75.72 100.873 75.88C100.447 76.0267 99.9667 76.1 99.4334 76.1C98.8067 76.1 98.2934 76.0267 97.8934 75.88C97.4934 75.7333 97.1867 75.5133 96.9734 75.22C96.76 74.9133 96.62 74.5267 96.5534 74.06H97.2334C96.98 74.6333 96.7134 75.0667 96.4334 75.36C96.1534 75.6533 95.8067 75.8533 95.3934 75.96C94.98 76.0533 94.4334 76.1 93.7534 76.1C93.42 76.1 93.06 76.0467 92.6734 75.94C92.3 75.8333 91.9734 75.6267 91.6934 75.32C91.4134 75 91.2467 74.5267 91.1934 73.9L91.7934 73.78C91.5667 74.46 91.2867 74.9667 90.9534 75.3C90.6334 75.62 90.2467 75.8333 89.7934 75.94C89.34 76.0467 88.8067 76.1 88.1934 76.1ZM96.8134 65.1C96.5334 65.1 96.2934 65.0067 96.0934 64.82C95.9067 64.62 95.8134 64.3867 95.8134 64.12C95.8134 63.8533 95.9067 63.62 96.0934 63.42C96.2934 63.22 96.5334 63.12 96.8134 63.12C97.08 63.12 97.3067 63.22 97.4934 63.42C97.6934 63.62 97.7934 63.8533 97.7934 64.12C97.7934 64.3867 97.6934 64.62 97.4934 64.82C97.3067 65.0067 97.08 65.1 96.8134 65.1ZM95.4534 67.3C95.1734 67.3 94.9334 67.2067 94.7334 67.02C94.5467 66.82 94.4534 66.5867 94.4534 66.32C94.4534 66.0533 94.5467 65.82 94.7334 65.62C94.9334 65.42 95.1734 65.32 95.4534 65.32C95.72 65.32 95.9467 65.42 96.1334 65.62C96.3334 65.82 96.4334 66.0533 96.4334 66.32C96.4334 66.5867 96.3334 66.82 96.1334 67.02C95.9467 67.2067 95.72 67.3 95.4534 67.3ZM98.1734 67.3C97.8934 67.3 97.6534 67.2067 97.4534 67.02C97.2667 66.82 97.1734 66.5867 97.1734 66.32C97.1734 66.0533 97.2667 65.82 97.4534 65.62C97.6534 65.42 97.8934 65.32 98.1734 65.32C98.44 65.32 98.6667 65.42 98.8534 65.62C99.0534 65.82 99.1534 66.0533 99.1534 66.32C99.1534 66.5867 99.0534 66.82 98.8534 67.02C98.6667 67.2067 98.44 67.3 98.1734 67.3ZM53.9426 100.42L54.4626 98.78C56.0226 98.78 57.3626 98.74 58.4826 98.66C59.6159 98.58 60.5426 98.4533 61.2626 98.28C61.9959 98.0933 62.5359 97.8467 62.8826 97.54C63.2426 97.22 63.4226 96.8333 63.4226 96.38C63.4226 95.8733 63.3292 95.2867 63.1426 94.62C62.9559 93.9533 62.7159 93.24 62.4226 92.48L63.9626 91.94C64.1359 92.3667 64.2959 92.8267 64.4426 93.32C64.6026 93.8 64.7359 94.28 64.8426 94.76C64.9492 95.2267 65.0026 95.66 65.0026 96.06C65.0026 96.8467 64.8226 97.52 64.4626 98.08C64.1026 98.6267 63.5026 99.0733 62.6626 99.42C61.8226 99.7667 60.6892 100.02 59.2626 100.18C57.8492 100.34 56.0759 100.42 53.9426 100.42ZM53.9426 100.42C52.7559 100.42 51.7092 100.34 50.8026 100.18C49.9092 100.033 49.1626 99.8 48.5626 99.48C47.9626 99.16 47.5092 98.7467 47.2026 98.24C46.8959 97.72 46.7426 97.0933 46.7426 96.36C46.7426 96.0267 46.7692 95.6867 46.8226 95.34C46.8759 94.98 46.9426 94.62 47.0226 94.26C47.1159 93.9 47.2092 93.5533 47.3026 93.22L48.8026 93.6C48.7492 93.8 48.6892 94.04 48.6226 94.32C48.5559 94.5867 48.4959 94.86 48.4426 95.14C48.4026 95.42 48.3826 95.6733 48.3826 95.9C48.3826 96.5933 48.5559 97.1533 48.9026 97.58C49.2626 97.9933 49.8826 98.3 50.7626 98.5C51.6426 98.6867 52.8759 98.78 54.4626 98.78L54.8626 99.78L53.9426 100.42ZM57.2826 91.98C57.0026 91.98 56.7626 91.8867 56.5626 91.7C56.3759 91.5 56.2826 91.2667 56.2826 91C56.2826 90.7333 56.3759 90.5 56.5626 90.3C56.7626 90.1 57.0026 90 57.2826 90C57.5492 90 57.7759 90.1 57.9626 90.3C58.1626 90.5 58.2626 90.7333 58.2626 91C58.2626 91.2667 58.1626 91.5 57.9626 91.7C57.7759 91.8867 57.5492 91.98 57.2826 91.98ZM54.5426 91.98C54.2626 91.98 54.0226 91.8867 53.8226 91.7C53.6359 91.5 53.5426 91.2667 53.5426 91C53.5426 90.7333 53.6359 90.5 53.8226 90.3C54.0226 90.1 54.2626 90 54.5426 90C54.8092 90 55.0359 90.1 55.2226 90.3C55.4226 90.5 55.5226 90.7333 55.5226 91C55.5226 91.2667 55.4226 91.5 55.2226 91.7C55.0359 91.8867 54.8092 91.98 54.5426 91.98ZM71.8259 100.1C70.7592 100.1 69.9392 99.98 69.3659 99.74C68.8059 99.5 68.4192 99.1267 68.2059 98.62C67.9925 98.1133 67.8725 97.46 67.8459 96.66L67.4459 85.72H69.0859L69.4859 96.02C69.5125 96.6733 69.5725 97.18 69.6659 97.54C69.7725 97.8867 69.9992 98.1267 70.3459 98.26C70.7059 98.3933 71.2659 98.46 72.0259 98.46C72.3059 98.46 72.5059 98.54 72.6259 98.7C72.7592 98.8467 72.8259 99.0267 72.8259 99.24C72.8259 99.4533 72.7325 99.6533 72.5459 99.84C72.3592 100.013 72.1192 100.1 71.8259 100.1ZM71.8262 100.1L72.0262 98.46C72.5862 98.46 73.0262 98.4133 73.3462 98.32C73.6662 98.2133 73.9062 98.02 74.0662 97.74C74.2395 97.4467 74.3862 97.0267 74.5062 96.48C74.6262 95.9333 74.7728 95.22 74.9462 94.34L76.5062 94.64C76.4528 94.88 76.3928 95.1467 76.3262 95.44C76.2595 95.7333 76.1995 96.0267 76.1462 96.32C76.1062 96.6 76.0862 96.8467 76.0862 97.06C76.0862 97.3267 76.1462 97.5667 76.2662 97.78C76.3862 97.9933 76.6462 98.16 77.0462 98.28C77.4462 98.4 78.0595 98.46 78.8862 98.46C79.1662 98.46 79.3662 98.54 79.4862 98.7C79.6195 98.8467 79.6862 99.0267 79.6862 99.24C79.6862 99.4533 79.5928 99.6533 79.4062 99.84C79.2195 100.013 78.9795 100.1 78.6862 100.1C77.8195 100.1 77.1395 100.027 76.6462 99.88C76.1528 99.72 75.7928 99.4867 75.5662 99.18C75.3395 98.86 75.1862 98.4733 75.1062 98.02L75.7062 98.06C75.4928 98.4867 75.2595 98.8333 75.0062 99.1C74.7662 99.3667 74.4995 99.5733 74.2062 99.72C73.9128 99.8667 73.5728 99.9667 73.1862 100.02C72.7995 100.073 72.3462 100.1 71.8262 100.1ZM75.2262 103.82C74.9462 103.82 74.7062 103.72 74.5062 103.52C74.3195 103.333 74.2262 103.107 74.2262 102.84C74.2262 102.573 74.3195 102.34 74.5062 102.14C74.7062 101.94 74.9462 101.84 75.2262 101.84C75.4928 101.84 75.7195 101.94 75.9062 102.14C76.1062 102.34 76.2062 102.573 76.2062 102.84C76.2062 103.107 76.1062 103.333 75.9062 103.52C75.7195 103.72 75.4928 103.82 75.2262 103.82ZM78.6816 100.1L78.8616 98.46C79.6216 98.46 80.155 98.3867 80.4616 98.24C80.7683 98.0933 80.9416 97.8333 80.9816 97.46C81.035 97.0867 81.0483 96.5667 81.0216 95.9L80.6416 85.72H82.2616L82.6616 95.72C82.6883 96.4267 82.6616 97.0533 82.5816 97.6C82.515 98.1467 82.3416 98.6067 82.0616 98.98C81.795 99.3533 81.3883 99.6333 80.8416 99.82C80.3083 100.007 79.5883 100.1 78.6816 100.1ZM89.697 100.1C88.6303 100.1 87.8103 99.98 87.237 99.74C86.677 99.5 86.2903 99.1267 86.077 98.62C85.8636 98.1133 85.7436 97.46 85.717 96.66L85.317 85.72H86.957L87.357 96.02C87.3836 96.6733 87.4436 97.18 87.537 97.54C87.6436 97.8867 87.8703 98.1267 88.217 98.26C88.577 98.3933 89.137 98.46 89.897 98.46C90.177 98.46 90.377 98.54 90.497 98.7C90.6303 98.8467 90.697 99.0267 90.697 99.24C90.697 99.4533 90.6036 99.6533 90.417 99.84C90.2303 100.013 89.9903 100.1 89.697 100.1ZM103.897 100.1C103.551 100.1 103.111 100.067 102.577 100C102.057 99.92 101.524 99.7867 100.977 99.6C100.444 99.4133 99.9906 99.1533 99.6173 98.82L101.257 98C101.724 98.1867 102.204 98.3133 102.697 98.38C103.204 98.4333 103.671 98.46 104.097 98.46C104.377 98.46 104.577 98.54 104.697 98.7C104.831 98.8467 104.897 99.0267 104.897 99.24C104.897 99.4533 104.804 99.6533 104.617 99.84C104.431 100.013 104.191 100.1 103.897 100.1ZM89.6973 100.1L89.8973 98.46H94.0773C95.2373 98.46 96.2373 98.4133 97.0773 98.32C97.9306 98.2133 98.6306 98.06 99.1773 97.86C99.7239 97.66 100.131 97.4067 100.397 97.1C100.664 96.78 100.797 96.4067 100.797 95.98C100.797 95.7533 100.724 95.5067 100.577 95.24C100.431 94.9733 100.204 94.7467 99.8973 94.56C99.5906 94.36 99.1839 94.26 98.6773 94.26C98.0373 94.26 97.3973 94.4267 96.7573 94.76C96.1306 95.0933 95.5306 95.5133 94.9573 96.02C94.3973 96.5133 93.8973 97.02 93.4573 97.54C93.0173 98.06 92.6639 98.5133 92.3973 98.9L90.6573 98.84C91.0839 98.1467 91.5906 97.44 92.1773 96.72C92.7773 95.9867 93.4306 95.3133 94.1373 94.7C94.8573 94.0733 95.6106 93.5733 96.3973 93.2C97.1839 92.8133 97.9839 92.62 98.7973 92.62C99.5306 92.62 100.157 92.7733 100.677 93.08C101.211 93.3733 101.617 93.7733 101.897 94.28C102.191 94.7867 102.337 95.36 102.337 96C102.337 96.6267 102.111 97.26 101.657 97.9C101.204 98.5267 100.424 99.02 99.3173 99.38C98.7573 99.5667 98.1173 99.7133 97.3973 99.82C96.6773 99.9267 95.8573 100 94.9373 100.04C94.0173 100.08 92.9706 100.1 91.7973 100.1H89.6973ZM91.5973 98.12L91.1973 85.72H92.8173L93.2173 96.72L91.5973 98.12ZM103.896 100.1L104.076 98.46C104.836 98.46 105.37 98.3867 105.676 98.24C105.983 98.0933 106.156 97.8333 106.196 97.46C106.25 97.0867 106.263 96.5667 106.236 95.9L105.856 85.72H107.476L107.876 95.72C107.903 96.4267 107.876 97.0533 107.796 97.6C107.73 98.1467 107.556 98.6067 107.276 98.98C107.01 99.3533 106.603 99.6333 106.056 99.82C105.523 100.007 104.803 100.1 103.896 100.1ZM110.932 100L110.532 85.72H112.152L112.552 100H110.932Z" fill="white"/>
</g>
</svg>
