<svg width="161" height="167" viewBox="0 0 161 167" fill="none" xmlns="http://www.w3.org/2000/svg">
<g id="Component 3">
<rect id="Rectangle 4138" opacity="0.9" width="161" height="167" rx="33" fill="#29253F"/>
<path id="&#216;&#167;&#217;&#132;&#216;&#165;&#216;&#177;&#216;&#180;&#216;&#167;&#216;&#175; &#216;&#167;&#217;&#132;&#216;&#163;&#217;&#131;&#216;&#167;&#216;&#175;&#217;&#138;&#217;&#133;&#217;&#138;" d="M14.9574 76.02C14.9574 75.7 14.9841 75.36 15.0374 75C15.1041 74.6267 15.1974 74.2333 15.3174 73.82C15.4508 73.3933 15.6108 72.9467 15.7974 72.48L17.2374 73.04C17.1041 73.4133 16.9841 73.7667 16.8774 74.1C16.7841 74.4333 16.7108 74.7467 16.6574 75.04C16.6174 75.3333 16.5974 75.6133 16.5974 75.88C16.5974 76.44 16.7174 76.9133 16.9574 77.3C17.2108 77.7 17.5574 78.0267 17.9974 78.28C18.4374 78.5333 18.9374 78.72 19.4974 78.84C20.0708 78.96 20.6774 79.02 21.3174 79.02C22.0908 79.02 22.8108 78.9533 23.4774 78.82C24.1574 78.6867 24.7508 78.4933 25.2574 78.24C25.7774 78 26.1841 77.72 26.4774 77.4C26.7708 77.0933 26.9174 76.76 26.9174 76.4C26.9174 76.2267 26.8508 76.0667 26.7174 75.92C26.5841 75.7733 26.3841 75.6333 26.1174 75.5C25.8508 75.3667 25.5308 75.24 25.1574 75.12C24.7841 74.9867 24.3574 74.8533 23.8774 74.72L24.2574 73.06C24.9508 73.3267 25.5641 73.5533 26.0974 73.74C26.6308 73.9133 27.0974 74.0533 27.4974 74.16C27.8974 74.2667 28.2441 74.3467 28.5374 74.4C28.8308 74.44 29.0774 74.46 29.2774 74.46C29.5574 74.46 29.7574 74.54 29.8774 74.7C30.0108 74.8467 30.0774 75.0267 30.0774 75.24C30.0774 75.4533 29.9841 75.6533 29.7974 75.84C29.6108 76.0133 29.3708 76.1 29.0774 76.1C28.9974 76.1 28.9174 76.1 28.8374 76.1C28.7574 76.1 28.6708 76.1 28.5774 76.1C28.4974 76.1 28.4174 76.1 28.3374 76.1C28.3641 76.22 28.3841 76.3133 28.3974 76.38C28.4108 76.46 28.4174 76.56 28.4174 76.68C28.4174 77.1733 28.2441 77.6533 27.8974 78.12C27.5641 78.5867 27.0708 79.0067 26.4174 79.38C25.7641 79.7667 24.9708 80.0733 24.0374 80.3C23.1174 80.5267 22.0641 80.64 20.8774 80.64C19.8241 80.64 18.8441 80.4667 17.9374 80.12C17.0441 79.7867 16.3241 79.28 15.7774 78.6C15.2308 77.92 14.9574 77.06 14.9574 76.02ZM22.3174 84.42C22.0374 84.42 21.7974 84.32 21.5974 84.12C21.4108 83.9333 21.3174 83.7067 21.3174 83.44C21.3174 83.1733 21.4108 82.94 21.5974 82.74C21.7974 82.54 22.0374 82.44 22.3174 82.44C22.5841 82.44 22.8108 82.54 22.9974 82.74C23.1974 82.94 23.2974 83.1733 23.2974 83.44C23.2974 83.7067 23.1974 83.9333 22.9974 84.12C22.8108 84.32 22.5841 84.42 22.3174 84.42ZM19.5774 84.42C19.2974 84.42 19.0574 84.32 18.8574 84.12C18.6708 83.9333 18.5774 83.7067 18.5774 83.44C18.5774 83.1733 18.6708 82.94 18.8574 82.74C19.0574 82.54 19.2974 82.44 19.5774 82.44C19.8441 82.44 20.0708 82.54 20.2574 82.74C20.4574 82.94 20.5574 83.1733 20.5574 83.44C20.5574 83.7067 20.4574 83.9333 20.2574 84.12C20.0708 84.32 19.8441 84.42 19.5774 84.42ZM29.084 76.1L29.284 74.46C29.6573 74.46 29.9507 74.38 30.164 74.22C30.3907 74.06 30.604 73.7933 30.804 73.42C31.0173 73.0467 31.284 72.5467 31.604 71.92C31.924 71.28 32.244 70.76 32.564 70.36C32.8973 69.9467 33.2173 69.6267 33.524 69.4C33.844 69.16 34.144 68.9933 34.424 68.9C34.704 68.8067 34.964 68.76 35.204 68.76C35.644 68.76 36.0373 68.86 36.384 69.06C36.7307 69.2467 37.0573 69.5733 37.364 70.04C37.6707 70.4933 37.984 71.12 38.304 71.92C38.6107 72.6533 38.884 73.2067 39.124 73.58C39.3773 73.94 39.6373 74.18 39.904 74.3C40.184 74.4067 40.4973 74.46 40.844 74.46C41.124 74.46 41.324 74.54 41.444 74.7C41.5773 74.8467 41.644 75.0267 41.644 75.24C41.644 75.4533 41.5507 75.6533 41.364 75.84C41.1773 76.0133 40.9373 76.1 40.644 76.1C40.124 76.1 39.644 76.0133 39.204 75.84C38.7773 75.6667 38.4173 75.3933 38.124 75.02L38.404 74.6C38.2573 75.0133 38.0573 75.3533 37.804 75.62C37.564 75.8733 37.2907 76.06 36.984 76.18C36.6773 76.3133 36.3507 76.38 36.004 76.38C35.564 76.38 35.1107 76.2867 34.644 76.1C34.1907 75.9133 33.7507 75.6467 33.324 75.3C32.8973 74.9533 32.524 74.5467 32.204 74.08C31.8573 74.6933 31.524 75.1467 31.204 75.44C30.8973 75.72 30.5773 75.9 30.244 75.98C29.9107 76.06 29.524 76.1 29.084 76.1ZM32.964 72.56C33.1907 72.9333 33.4307 73.26 33.684 73.54C33.9507 73.82 34.2173 74.0533 34.484 74.24C34.7507 74.4133 35.0107 74.5467 35.264 74.64C35.5307 74.72 35.7707 74.76 35.984 74.76C36.4507 74.76 36.7907 74.5933 37.004 74.26C37.2307 73.9267 37.224 73.46 36.984 72.86C36.864 72.5533 36.7373 72.2533 36.604 71.96C36.484 71.6667 36.3507 71.4 36.204 71.16C36.0573 70.9067 35.8907 70.7133 35.704 70.58C35.5173 70.4333 35.3107 70.36 35.084 70.36C34.884 70.36 34.6707 70.4267 34.444 70.56C34.2307 70.6933 33.9973 70.92 33.744 71.24C33.504 71.56 33.244 72 32.964 72.56ZM40.6465 76.1L40.8465 74.46C41.6332 74.46 42.2465 74.4333 42.6865 74.38C43.1265 74.3133 43.4398 74.16 43.6265 73.92C43.8132 73.6667 43.9065 73.2733 43.9065 72.74C43.9065 72.4067 43.8532 72.0133 43.7465 71.56C43.6398 71.0933 43.4998 70.6 43.3265 70.08C43.1532 69.56 42.9665 69.0467 42.7665 68.54L44.3865 67.94C44.5598 68.3667 44.7198 68.8533 44.8665 69.4C45.0265 69.9467 45.1598 70.4867 45.2665 71.02C45.3732 71.5533 45.4265 72.02 45.4265 72.42C45.4265 73.0867 45.3332 73.6533 45.1465 74.12C44.9732 74.5867 44.6932 74.9667 44.3065 75.26C43.9198 75.5533 43.4198 75.7667 42.8065 75.9C42.2065 76.0333 41.4865 76.1 40.6465 76.1ZM44.3465 79.88C44.0665 79.88 43.8265 79.78 43.6265 79.58C43.4398 79.3933 43.3465 79.1667 43.3465 78.9C43.3465 78.6333 43.4398 78.4 43.6265 78.2C43.8265 78 44.0665 77.9 44.3465 77.9C44.6132 77.9 44.8398 78 45.0265 78.2C45.2265 78.4 45.3265 78.6333 45.3265 78.9C45.3265 79.1667 45.2265 79.3933 45.0265 79.58C44.8398 79.78 44.6132 79.88 44.3465 79.88ZM41.6065 79.88C41.3265 79.88 41.0865 79.78 40.8865 79.58C40.6998 79.3933 40.6065 79.1667 40.6065 78.9C40.6065 78.6333 40.6998 78.4 40.8865 78.2C41.0865 78 41.3265 77.9 41.6065 77.9C41.8732 77.9 42.0998 78 42.2865 78.2C42.4865 78.4 42.5865 78.6333 42.5865 78.9C42.5865 79.1667 42.4865 79.3933 42.2865 79.58C42.0998 79.78 41.8732 79.88 41.6065 79.88ZM47.323 75.1L48.123 73.72C48.3897 73.8933 48.763 74.06 49.243 74.22C49.723 74.38 50.283 74.46 50.923 74.46C51.5897 74.46 52.1164 74.3933 52.503 74.26C52.903 74.1267 53.1897 73.9333 53.363 73.68C53.5497 73.4133 53.643 73.1067 53.643 72.76C53.643 72.4933 53.583 72.1667 53.463 71.78C53.3564 71.38 53.1164 70.8467 52.743 70.18C52.3697 69.5 51.7964 68.6133 51.023 67.52L52.403 66.62C53.1097 67.5933 53.6697 68.4733 54.083 69.26C54.5097 70.0467 54.8097 70.74 54.983 71.34C55.1697 71.9267 55.263 72.4333 55.263 72.86C55.263 73.3933 55.1297 73.9133 54.863 74.42C54.5964 74.9133 54.1497 75.32 53.523 75.64C52.8964 75.96 52.0297 76.12 50.923 76.12C50.443 76.12 49.9764 76.08 49.523 76C49.083 75.92 48.6764 75.8067 48.303 75.66C47.9297 75.5 47.603 75.3133 47.323 75.1ZM61.9743 76.1C60.9076 76.1 60.0876 75.98 59.5143 75.74C58.9543 75.5 58.5676 75.1267 58.3543 74.62C58.141 74.1133 58.021 73.46 57.9943 72.66L57.5943 61.72H59.2343L59.6343 72.02C59.661 72.6733 59.721 73.18 59.8143 73.54C59.921 73.8867 60.1476 74.1267 60.4943 74.26C60.8543 74.3933 61.4143 74.46 62.1743 74.46C62.4543 74.46 62.6543 74.54 62.7743 74.7C62.9076 74.8467 62.9743 75.0267 62.9743 75.24C62.9743 75.4533 62.881 75.6533 62.6943 75.84C62.5076 76.0133 62.2676 76.1 61.9743 76.1ZM61.9746 76.1L62.1746 74.46H64.0546C64.8413 74.46 65.4613 74.42 65.9146 74.34C66.3813 74.2467 66.7213 74.1333 66.9346 74C67.1613 73.8533 67.3079 73.7 67.3746 73.54C67.4546 73.3667 67.4946 73.1933 67.4946 73.02C67.4946 72.7133 67.3746 72.3333 67.1346 71.88C66.9079 71.4267 66.4346 70.84 65.7146 70.12C65.3413 69.7467 64.9679 69.4067 64.5946 69.1C64.2213 68.78 63.8746 68.5 63.5546 68.26C63.2479 68.0067 63.0013 67.7933 62.8146 67.62C62.6279 67.4467 62.5346 67.3133 62.5346 67.22C62.5346 67.02 62.5479 66.8267 62.5746 66.64C62.6146 66.4533 62.6613 66.28 62.7146 66.12C62.7813 65.96 62.8613 65.8333 62.9546 65.74C63.2213 65.46 63.5613 65.18 63.9746 64.9C64.4013 64.62 64.8946 64.3267 65.4546 64.02C66.0279 63.7133 66.6679 63.3867 67.3746 63.04C68.0946 62.68 68.8813 62.2867 69.7346 61.86L70.4146 63.34C69.3479 63.8467 68.4546 64.28 67.7346 64.64C67.0279 64.9867 66.4279 65.3 65.9346 65.58C65.4413 65.8467 65.0079 66.1 64.6346 66.34C64.2613 66.58 63.8813 66.8467 63.4946 67.14L63.7946 66.38C64.6346 67.0467 65.3746 67.6733 66.0146 68.26C66.6679 68.8467 67.2146 69.4133 67.6546 69.96C68.0946 70.4933 68.4279 71.02 68.6546 71.54C68.8813 72.06 68.9946 72.5867 68.9946 73.12C68.9946 73.4133 68.9413 73.7333 68.8346 74.08C68.7279 74.4267 68.5013 74.7533 68.1546 75.06C67.8079 75.3667 67.2879 75.62 66.5946 75.82C65.9013 76.0067 64.9679 76.1 63.7946 76.1H61.9746ZM78.0768 65.28C78.0768 64.9867 78.0568 64.6333 78.0168 64.22C77.9768 63.8067 77.9301 63.3933 77.8768 62.98C77.8235 62.5667 77.7701 62.2133 77.7168 61.92L79.4368 61.72C79.4768 61.9867 79.5168 62.34 79.5568 62.78C79.6101 63.2067 79.6501 63.6333 79.6768 64.06C79.7035 64.4867 79.7168 64.84 79.7168 65.12C79.7168 65.76 79.6701 66.3867 79.5768 67C79.4968 67.6 79.3635 68.1933 79.1768 68.78C78.9901 69.3533 78.7435 69.9133 78.4368 70.46L78.1968 70.9C77.8235 71.5267 77.3635 72.1333 76.8168 72.72C76.2701 73.2933 75.6301 73.84 74.8968 74.36H77.4168C77.8701 74.36 78.2168 74.3067 78.4568 74.2C78.6968 74.08 78.8568 73.9267 78.9368 73.74C79.0301 73.5533 79.0768 73.3533 79.0768 73.14C79.0768 72.78 78.8568 72.3333 78.4168 71.8C77.9901 71.2533 77.3968 70.6533 76.6368 70C75.8768 69.3333 75.0168 68.6333 74.0568 67.9C73.0968 67.1667 72.0835 66.42 71.0168 65.66L71.9568 64.34C73.1835 65.2467 74.2635 66.0667 75.1968 66.8C76.1435 67.5333 76.9501 68.2067 77.6168 68.82C78.2968 69.42 78.8501 69.98 79.2768 70.5C79.7168 71.0067 80.0368 71.4933 80.2368 71.96C80.4501 72.4133 80.5568 72.86 80.5568 73.3C80.5568 73.5933 80.5035 73.9 80.3968 74.22C80.3035 74.5267 80.1301 74.82 79.8768 75.1C79.6368 75.3667 79.2901 75.5867 78.8368 75.76C78.3968 75.92 77.8235 76 77.1168 76H72.5168V74.38C73.8901 73.3933 74.9768 72.4333 75.7768 71.5C76.5901 70.5667 77.1768 69.5933 77.5368 68.58C77.8968 67.5667 78.0768 66.4667 78.0768 65.28ZM70.7368 63.28L70.4968 62.2C70.8435 62.12 71.1235 62.0533 71.3368 62C71.5501 61.9467 71.7901 61.8867 72.0568 61.82L71.9568 62.24C71.6101 62.1333 71.2768 61.9067 70.9568 61.56C70.6501 61.2133 70.4968 60.82 70.4968 60.38C70.4968 59.98 70.5901 59.6467 70.7768 59.38C70.9768 59.1 71.2301 58.8933 71.5368 58.76C71.8568 58.6267 72.1968 58.56 72.5568 58.56C72.7035 58.56 72.8568 58.5733 73.0168 58.6C73.1901 58.6267 73.3501 58.6667 73.4968 58.72L73.3368 59.72C73.2035 59.6933 73.0768 59.6667 72.9568 59.64C72.8368 59.6133 72.7035 59.6 72.5568 59.6C72.2501 59.6 72.0101 59.6667 71.8368 59.8C71.6635 59.92 71.5768 60.0933 71.5768 60.32C71.5768 60.6 71.6635 60.84 71.8368 61.04C72.0235 61.24 72.2301 61.4 72.4568 61.52C72.6968 61.6267 72.8901 61.68 73.0368 61.68L72.2168 61.76C72.5768 61.6667 72.9101 61.5733 73.2168 61.48C73.5368 61.3733 73.8235 61.2733 74.0768 61.18L74.3968 62.2C74.0768 62.32 73.6968 62.4467 73.2568 62.58C72.8301 62.7133 72.3968 62.84 71.9568 62.96C71.5168 63.08 71.1101 63.1867 70.7368 63.28ZM83.6974 76L83.2974 61.72H84.9174L85.3174 76H83.6974ZM92.5574 75.1L93.3574 73.72C93.6241 73.8933 93.9974 74.06 94.4774 74.22C94.9574 74.38 95.5174 74.46 96.1574 74.46C96.8241 74.46 97.3508 74.3933 97.7374 74.26C98.1374 74.1267 98.4241 73.9333 98.5974 73.68C98.7841 73.4133 98.8774 73.1067 98.8774 72.76C98.8774 72.4933 98.8174 72.1667 98.6974 71.78C98.5908 71.38 98.3508 70.8467 97.9774 70.18C97.6041 69.5 97.0308 68.6133 96.2574 67.52L97.6374 66.62C98.3441 67.5933 98.9041 68.4733 99.3174 69.26C99.7441 70.0467 100.044 70.74 100.217 71.34C100.404 71.9267 100.497 72.4333 100.497 72.86C100.497 73.3933 100.364 73.9133 100.097 74.42C99.8308 74.9133 99.3841 75.32 98.7574 75.64C98.1308 75.96 97.2641 76.12 96.1574 76.12C95.6774 76.12 95.2108 76.08 94.7574 76C94.3174 75.92 93.9108 75.8067 93.5374 75.66C93.1641 75.5 92.8374 75.3133 92.5574 75.1ZM107.209 76.1C106.142 76.1 105.322 75.98 104.749 75.74C104.189 75.5 103.802 75.1267 103.589 74.62C103.375 74.1133 103.255 73.46 103.229 72.66L102.829 61.72H104.469L104.869 72.02C104.895 72.6733 104.955 73.18 105.049 73.54C105.155 73.8867 105.382 74.1267 105.729 74.26C106.089 74.3933 106.649 74.46 107.409 74.46C107.689 74.46 107.889 74.54 108.009 74.7C108.142 74.8467 108.209 75.0267 108.209 75.24C108.209 75.4533 108.115 75.6533 107.929 75.84C107.742 76.0133 107.502 76.1 107.209 76.1ZM107.209 76.1L107.409 74.46C107.836 74.46 108.182 74.4333 108.449 74.38C108.716 74.3133 108.936 74.16 109.109 73.92C109.296 73.6667 109.469 73.2733 109.629 72.74C109.789 72.2067 109.976 71.46 110.189 70.5L111.689 70.92C111.636 71.1467 111.576 71.4067 111.509 71.7C111.442 71.98 111.382 72.2733 111.329 72.58C111.276 72.8733 111.249 73.1467 111.249 73.4C111.249 73.7333 111.376 73.9933 111.629 74.18C111.882 74.3667 112.342 74.46 113.009 74.46C113.409 74.46 113.736 74.4267 113.989 74.36C114.242 74.2933 114.449 74.1333 114.609 73.88C114.782 73.6267 114.936 73.22 115.069 72.66C115.202 72.1 115.342 71.3333 115.489 70.36L117.009 70.64C116.969 70.88 116.922 71.1733 116.869 71.52C116.816 71.8667 116.762 72.2133 116.709 72.56C116.669 72.8933 116.649 73.1733 116.649 73.4C116.649 73.5867 116.689 73.7667 116.769 73.94C116.862 74.1 117.036 74.2267 117.289 74.32C117.556 74.4133 117.949 74.46 118.469 74.46C118.856 74.46 119.189 74.4133 119.469 74.32C119.762 74.2267 119.982 74.0533 120.129 73.8C120.289 73.5467 120.369 73.1933 120.369 72.74C120.369 72.2333 120.249 71.6 120.009 70.84C119.782 70.0667 119.522 69.3 119.229 68.54L120.849 67.94C121.022 68.3667 121.182 68.8533 121.329 69.4C121.489 69.9467 121.622 70.4867 121.729 71.02C121.836 71.5533 121.889 72.02 121.889 72.42C121.889 73.0333 121.809 73.5733 121.649 74.04C121.489 74.5067 121.262 74.8933 120.969 75.2C120.676 75.4933 120.316 75.72 119.889 75.88C119.462 76.0267 118.982 76.1 118.449 76.1C117.822 76.1 117.309 76.0267 116.909 75.88C116.509 75.7333 116.202 75.5133 115.989 75.22C115.776 74.9133 115.636 74.5267 115.569 74.06H116.249C115.996 74.6333 115.729 75.0667 115.449 75.36C115.169 75.6533 114.822 75.8533 114.409 75.96C113.996 76.0533 113.449 76.1 112.769 76.1C112.436 76.1 112.076 76.0467 111.689 75.94C111.316 75.8333 110.989 75.6267 110.709 75.32C110.429 75 110.262 74.5267 110.209 73.9L110.809 73.78C110.582 74.46 110.302 74.9667 109.969 75.3C109.649 75.62 109.262 75.8333 108.809 75.94C108.356 76.0467 107.822 76.1 107.209 76.1ZM115.829 65.1C115.549 65.1 115.309 65.0067 115.109 64.82C114.922 64.62 114.829 64.3867 114.829 64.12C114.829 63.8533 114.922 63.62 115.109 63.42C115.309 63.22 115.549 63.12 115.829 63.12C116.096 63.12 116.322 63.22 116.509 63.42C116.709 63.62 116.809 63.8533 116.809 64.12C116.809 64.3867 116.709 64.62 116.509 64.82C116.322 65.0067 116.096 65.1 115.829 65.1ZM114.469 67.3C114.189 67.3 113.949 67.2067 113.749 67.02C113.562 66.82 113.469 66.5867 113.469 66.32C113.469 66.0533 113.562 65.82 113.749 65.62C113.949 65.42 114.189 65.32 114.469 65.32C114.736 65.32 114.962 65.42 115.149 65.62C115.349 65.82 115.449 66.0533 115.449 66.32C115.449 66.5867 115.349 66.82 115.149 67.02C114.962 67.2067 114.736 67.3 114.469 67.3ZM117.189 67.3C116.909 67.3 116.669 67.2067 116.469 67.02C116.282 66.82 116.189 66.5867 116.189 66.32C116.189 66.0533 116.282 65.82 116.469 65.62C116.669 65.42 116.909 65.32 117.189 65.32C117.456 65.32 117.682 65.42 117.869 65.62C118.069 65.82 118.169 66.0533 118.169 66.32C118.169 66.5867 118.069 66.82 117.869 67.02C117.682 67.2067 117.456 67.3 117.189 67.3ZM122.973 80.6L122.393 79.08C123.739 78.6533 124.773 78.14 125.493 77.54C126.226 76.9533 126.726 76.34 126.993 75.7C127.273 75.06 127.413 74.4467 127.413 73.86C127.413 73.4867 127.373 73.1267 127.293 72.78C127.213 72.4333 127.073 72.04 126.873 71.6C126.673 71.16 126.393 70.6133 126.033 69.96L127.493 69.22C127.999 70.0867 128.359 70.9067 128.573 71.68C128.799 72.4533 128.913 73.1333 128.913 73.72C128.913 74.56 128.773 75.32 128.493 76C128.226 76.68 127.866 77.28 127.413 77.8C126.973 78.3333 126.486 78.7867 125.953 79.16C125.433 79.5333 124.906 79.84 124.373 80.08C123.853 80.32 123.386 80.4933 122.973 80.6ZM138.096 65.28C138.096 64.9867 138.076 64.6333 138.036 64.22C137.996 63.8067 137.95 63.3933 137.896 62.98C137.843 62.5667 137.79 62.2133 137.736 61.92L139.456 61.72C139.496 61.9867 139.536 62.34 139.576 62.78C139.63 63.2067 139.67 63.6333 139.696 64.06C139.723 64.4867 139.736 64.84 139.736 65.12C139.736 65.76 139.69 66.3867 139.596 67C139.516 67.6 139.383 68.1933 139.196 68.78C139.01 69.3533 138.763 69.9133 138.456 70.46L138.216 70.9C137.843 71.5267 137.383 72.1333 136.836 72.72C136.29 73.2933 135.65 73.84 134.916 74.36H137.436C137.89 74.36 138.236 74.3067 138.476 74.2C138.716 74.08 138.876 73.9267 138.956 73.74C139.05 73.5533 139.096 73.3533 139.096 73.14C139.096 72.78 138.876 72.3333 138.436 71.8C138.01 71.2533 137.416 70.6533 136.656 70C135.896 69.3333 135.036 68.6333 134.076 67.9C133.116 67.1667 132.103 66.42 131.036 65.66L131.976 64.34C133.203 65.2467 134.283 66.0667 135.216 66.8C136.163 67.5333 136.97 68.2067 137.636 68.82C138.316 69.42 138.87 69.98 139.296 70.5C139.736 71.0067 140.056 71.4933 140.256 71.96C140.47 72.4133 140.576 72.86 140.576 73.3C140.576 73.5933 140.523 73.9 140.416 74.22C140.323 74.5267 140.15 74.82 139.896 75.1C139.656 75.3667 139.31 75.5867 138.856 75.76C138.416 75.92 137.843 76 137.136 76H132.536V74.38C133.91 73.3933 134.996 72.4333 135.796 71.5C136.61 70.5667 137.196 69.5933 137.556 68.58C137.916 67.5667 138.096 66.4667 138.096 65.28ZM132.176 82.06L131.936 80.98C132.283 80.9 132.563 80.8333 132.776 80.78C132.99 80.7267 133.23 80.6667 133.496 80.6L133.396 81.02C133.05 80.9133 132.716 80.6867 132.396 80.34C132.09 79.9933 131.936 79.6 131.936 79.16C131.936 78.76 132.03 78.42 132.216 78.14C132.416 77.8733 132.67 77.6733 132.976 77.54C133.296 77.4067 133.636 77.34 133.996 77.34C134.143 77.34 134.296 77.3533 134.456 77.38C134.63 77.4067 134.79 77.4467 134.936 77.5L134.776 78.5C134.643 78.4733 134.516 78.4467 134.396 78.42C134.276 78.3933 134.143 78.38 133.996 78.38C133.69 78.38 133.45 78.44 133.276 78.56C133.103 78.6933 133.016 78.8733 133.016 79.1C133.016 79.38 133.103 79.62 133.276 79.82C133.463 80.02 133.67 80.1733 133.896 80.28C134.136 80.4 134.33 80.46 134.476 80.46L133.656 80.54C134.016 80.4467 134.35 80.3467 134.656 80.24C134.976 80.1467 135.263 80.0533 135.516 79.96L135.836 80.98C135.516 81.1 135.136 81.2267 134.696 81.36C134.27 81.4933 133.836 81.62 133.396 81.74C132.956 81.86 132.55 81.9667 132.176 82.06ZM143.717 76L143.317 61.72H144.937L145.337 76H143.717Z" fill="white"/>
</g>
</svg>
