<svg width="161" height="167" viewBox="0 0 161 167" fill="none" xmlns="http://www.w3.org/2000/svg">
<g id="Component 1">
<rect id="Rectangle 4139" opacity="0.9" width="161" height="167" rx="33" fill="#29253F"/>
<path id="&#217;&#136;&#216;&#173;&#216;&#175;&#216;&#169; &#216;&#167;&#217;&#132;&#217;&#134;&#216;&#180;&#216;&#167;&#216;&#183;" d="M60.8037 78C60.1503 78 59.5637 77.8867 59.0437 77.66C58.5237 77.4333 58.1103 77.0867 57.8037 76.62C57.5103 76.1533 57.3637 75.56 57.3637 74.84C57.3637 74.2667 57.5837 73.5533 58.0237 72.7C58.4637 71.8333 59.2303 70.92 60.3237 69.96L60.7037 71.04L59.3437 69.82L60.3837 68.58C61.077 69.1267 61.717 69.7133 62.3037 70.34C62.8903 70.9667 63.3637 71.6333 63.7237 72.34C64.0837 73.0467 64.2637 73.7933 64.2637 74.58C64.2637 74.8867 64.2103 75.2333 64.1037 75.62C63.997 76.0067 63.817 76.3867 63.5637 76.76C63.3103 77.12 62.957 77.42 62.5037 77.66C62.0503 77.8867 61.4837 78 60.8037 78ZM60.8037 76.36C61.257 76.36 61.6303 76.2867 61.9237 76.14C62.2303 75.98 62.457 75.76 62.6037 75.48C62.7637 75.2 62.8437 74.8733 62.8437 74.5C62.8437 74.1667 62.7837 73.82 62.6637 73.46C62.557 73.0867 62.3303 72.6867 61.9837 72.26C61.6503 71.82 61.137 71.3267 60.4437 70.78L61.3237 70.74C60.8303 71.1667 60.4037 71.62 60.0437 72.1C59.6837 72.5667 59.4103 73.0267 59.2237 73.48C59.037 73.92 58.9437 74.32 58.9437 74.68C58.9437 75.24 59.117 75.66 59.4637 75.94C59.8237 76.22 60.2703 76.36 60.8037 76.36ZM62.3237 66.8C62.0437 66.8 61.8037 66.7067 61.6037 66.52C61.417 66.32 61.3237 66.0867 61.3237 65.82C61.3237 65.5533 61.417 65.32 61.6037 65.12C61.8037 64.92 62.0437 64.82 62.3237 64.82C62.5903 64.82 62.817 64.92 63.0037 65.12C63.2037 65.32 63.3037 65.5533 63.3037 65.82C63.3037 66.0867 63.2037 66.32 63.0037 66.52C62.817 66.7067 62.5903 66.8 62.3237 66.8ZM59.5837 66.8C59.3037 66.8 59.0637 66.7067 58.8637 66.52C58.677 66.32 58.5837 66.0867 58.5837 65.82C58.5837 65.5533 58.677 65.32 58.8637 65.12C59.0637 64.92 59.3037 64.82 59.5837 64.82C59.8503 64.82 60.077 64.92 60.2637 65.12C60.4637 65.32 60.5637 65.5533 60.5637 65.82C60.5637 66.0867 60.4637 66.32 60.2637 66.52C60.077 66.7067 59.8503 66.8 59.5837 66.8ZM69.1691 76.46C69.8358 76.46 70.3625 76.3933 70.7491 76.26C71.1491 76.1267 71.4358 75.9333 71.6091 75.68C71.7958 75.4133 71.8891 75.1067 71.8891 74.76C71.8891 74.4933 71.8158 74.1733 71.6691 73.8C71.5358 73.4267 71.3491 73.0133 71.1091 72.56C70.8691 72.0933 70.5891 71.6067 70.2691 71.1C69.9625 70.58 69.6291 70.0533 69.2691 69.52L70.6491 68.62C71.1691 69.4067 71.6225 70.1533 72.0091 70.86C72.3958 71.5533 72.7225 72.2067 72.9891 72.82C73.2558 73.42 73.4691 73.9867 73.6291 74.52C73.8158 75.1067 74.0225 75.54 74.2491 75.82C74.4891 76.1 74.7358 76.28 74.9891 76.36C75.2425 76.4267 75.4758 76.46 75.6891 76.46C75.9691 76.46 76.1758 76.54 76.3091 76.7C76.4425 76.8467 76.5091 77.0267 76.5091 77.24C76.5091 77.4533 76.4158 77.6533 76.2291 77.84C76.0425 78.0133 75.8025 78.1 75.5091 78.1C75.0691 78.1 74.6358 78.02 74.2091 77.86C73.7958 77.6867 73.4358 77.4133 73.1291 77.04C72.8225 76.6533 72.6091 76.14 72.4891 75.5L73.2891 74.86C73.2891 75.3933 73.1758 75.9133 72.9491 76.42C72.7225 76.9133 72.3091 77.32 71.7091 77.64C71.1225 77.96 70.2758 78.12 69.1691 78.12C68.6891 78.12 68.2225 78.08 67.7691 78C67.3291 77.92 66.9225 77.8067 66.5491 77.66C66.1758 77.5 65.8491 77.3133 65.5691 77.1L66.3691 75.72C66.6358 75.8933 67.0091 76.06 67.4891 76.22C67.9691 76.38 68.5291 76.46 69.1691 76.46ZM75.5137 78.1L75.6937 76.46C76.387 76.46 77.067 76.4067 77.7337 76.3C78.4003 76.1933 79.0537 76.04 79.6937 75.84C80.3337 75.64 80.947 75.4 81.5337 75.12C82.1337 74.8267 82.7003 74.4933 83.2337 74.12C82.887 73.8133 82.487 73.5467 82.0337 73.32C81.5803 73.0933 81.0803 72.92 80.5337 72.8C80.0003 72.6667 79.4337 72.6 78.8337 72.6C78.6203 72.6 78.4203 72.6067 78.2337 72.62C78.047 72.6333 77.8603 72.66 77.6737 72.7C77.487 72.7267 77.2737 72.7667 77.0337 72.82L76.7137 71.3C77.0737 71.1933 77.4337 71.1133 77.7937 71.06C78.1537 70.9933 78.5003 70.96 78.8337 70.96C79.527 70.96 80.1537 71.0467 80.7137 71.22C81.2737 71.38 81.7803 71.58 82.2337 71.82C82.7003 72.06 83.1337 72.3 83.5337 72.54C83.947 72.78 84.347 72.9867 84.7337 73.16C85.1203 73.32 85.5203 73.4 85.9337 73.4H86.3537L86.4937 74.84C85.9203 74.84 85.3937 74.92 84.9137 75.08C84.4337 75.24 83.9603 75.4467 83.4937 75.7C83.0403 75.94 82.5603 76.2 82.0537 76.48C81.547 76.7467 80.987 77.0067 80.3737 77.26C79.7603 77.5 79.0537 77.7 78.2537 77.86C77.467 78.02 76.5537 78.1 75.5137 78.1ZM88.451 82.6L88.091 80.96C88.891 80.8533 89.6243 80.7 90.291 80.5C90.971 80.3133 91.551 80.04 92.031 79.68C92.5243 79.32 92.9043 78.8467 93.171 78.26C93.4377 77.6733 93.571 76.94 93.571 76.06C93.571 75.6467 93.531 75.2533 93.451 74.88C93.371 74.4933 93.251 74.1533 93.091 73.86C92.931 73.5667 92.7377 73.3333 92.511 73.16C92.2977 72.9867 92.051 72.9 91.771 72.9C91.4643 72.9 91.1843 73.02 90.931 73.26C90.691 73.4867 90.4977 73.78 90.351 74.14C90.2177 74.5 90.151 74.86 90.151 75.22C90.151 75.5 90.2043 75.7467 90.311 75.96C90.431 76.16 90.6243 76.3133 90.891 76.42C91.1577 76.5267 91.5043 76.58 91.931 76.58C92.3177 76.58 92.7043 76.54 93.091 76.46C93.491 76.38 93.831 76.2733 94.111 76.14L94.191 77.54C93.871 77.7667 93.491 77.9267 93.051 78.02C92.6243 78.1133 92.191 78.16 91.751 78.16C91.2443 78.16 90.791 78.1067 90.391 78C90.0043 77.8933 89.671 77.74 89.391 77.54C89.1243 77.3267 88.9177 77.06 88.771 76.74C88.6377 76.42 88.571 76.0467 88.571 75.62C88.571 75.1133 88.651 74.6067 88.811 74.1C88.971 73.58 89.1977 73.1067 89.491 72.68C89.7843 72.2533 90.1377 71.9133 90.551 71.66C90.9643 71.3933 91.4243 71.26 91.931 71.26C92.4643 71.26 92.931 71.4 93.331 71.68C93.731 71.9467 94.0643 72.3133 94.331 72.78C94.5977 73.2467 94.7977 73.7733 94.931 74.36C95.0643 74.9467 95.131 75.5533 95.131 76.18C95.131 77.42 94.8777 78.4867 94.371 79.38C93.8777 80.2867 93.131 81.0067 92.131 81.54C91.1443 82.0733 89.9177 82.4267 88.451 82.6ZM56.1847 102.26C55.3447 102.26 54.5647 102.247 53.8447 102.22C53.138 102.193 52.4914 102.16 51.9047 102.12C51.318 102.093 50.798 102.053 50.3447 102C49.8914 101.96 49.5114 101.92 49.2047 101.88L49.3847 100.32C49.7714 100.373 50.2114 100.42 50.7047 100.46C51.2114 100.5 51.7647 100.533 52.3647 100.56C52.978 100.573 53.6314 100.587 54.3247 100.6C55.018 100.613 55.758 100.62 56.5447 100.62C57.4247 100.62 58.2114 100.567 58.9047 100.46C59.598 100.353 60.178 100.193 60.6447 99.98C61.1247 99.7533 61.4914 99.48 61.7447 99.16C61.998 98.84 62.1247 98.4733 62.1247 98.06C62.1247 97.7667 62.0514 97.48 61.9047 97.2C61.758 96.9067 61.5314 96.66 61.2247 96.46C60.918 96.26 60.5114 96.16 60.0047 96.16C59.3647 96.16 58.7247 96.3267 58.0847 96.66C57.458 96.9933 56.858 97.4133 56.2847 97.92C55.7247 98.4133 55.2247 98.92 54.7847 99.44C54.3447 99.96 53.9914 100.413 53.7247 100.8L51.9847 100.74C52.4114 100.047 52.918 99.34 53.5047 98.62C54.1047 97.8867 54.758 97.2133 55.4647 96.6C56.1847 95.9733 56.938 95.4733 57.7247 95.1C58.5114 94.7133 59.3114 94.52 60.1247 94.52C60.858 94.52 61.4847 94.6733 62.0047 94.98C62.538 95.2733 62.9447 95.6733 63.2247 96.18C63.518 96.6867 63.6647 97.26 63.6647 97.9C63.6647 98.6867 63.4314 99.4133 62.9647 100.08C62.5114 100.733 61.738 101.26 60.6447 101.66C59.5514 102.06 58.0647 102.26 56.1847 102.26ZM53.0647 100.02L52.6647 87.72H54.2847L54.6847 98.62L53.0647 100.02ZM70.3864 102.1C69.3197 102.1 68.4997 101.98 67.9264 101.74C67.3664 101.5 66.9797 101.127 66.7664 100.62C66.5531 100.113 66.4331 99.46 66.4064 98.66L66.0064 87.72H67.6464L68.0464 98.02C68.0731 98.6733 68.1331 99.18 68.2264 99.54C68.3331 99.8867 68.5597 100.127 68.9064 100.26C69.2664 100.393 69.8264 100.46 70.5864 100.46C70.8664 100.46 71.0664 100.54 71.1864 100.7C71.3197 100.847 71.3864 101.027 71.3864 101.24C71.3864 101.453 71.2931 101.653 71.1064 101.84C70.9197 102.013 70.6797 102.1 70.3864 102.1ZM70.3867 102.1L70.5867 100.46C71.0134 100.46 71.3601 100.433 71.6267 100.38C71.8934 100.313 72.1134 100.16 72.2867 99.92C72.4734 99.6667 72.6467 99.2733 72.8067 98.74C72.9667 98.2067 73.1534 97.46 73.3667 96.5L74.8667 96.92C74.7867 97.2533 74.6934 97.6533 74.5867 98.12C74.4801 98.5867 74.4267 99.0133 74.4267 99.4C74.4267 99.6133 74.4801 99.8 74.5867 99.96C74.6934 100.12 74.8734 100.247 75.1267 100.34C75.3934 100.42 75.7467 100.46 76.1867 100.46C76.5867 100.46 76.9134 100.427 77.1667 100.36C77.4201 100.293 77.6267 100.133 77.7867 99.88C77.9601 99.6267 78.1134 99.22 78.2467 98.66C78.3801 98.1 78.5201 97.3333 78.6667 96.36L80.1867 96.64C80.1467 96.88 80.1001 97.1733 80.0467 97.52C79.9934 97.8667 79.9401 98.2133 79.8867 98.56C79.8467 98.8933 79.8267 99.1733 79.8267 99.4C79.8267 99.5867 79.8667 99.7667 79.9467 99.94C80.0401 100.1 80.2134 100.227 80.4667 100.32C80.7334 100.413 81.1267 100.46 81.6467 100.46C82.3134 100.46 82.7934 100.32 83.0867 100.04C83.3934 99.76 83.5467 99.3333 83.5467 98.76C83.5467 98.4533 83.5401 98.1333 83.5267 97.8C83.5134 97.4533 83.4867 97.0733 83.4467 96.66C83.4201 96.2333 83.3734 95.7467 83.3067 95.2L84.7667 95.1C84.8467 96.18 84.9334 97.0667 85.0267 97.76C85.1334 98.4533 85.2801 99 85.4667 99.4C85.6667 99.7867 85.9334 100.06 86.2667 100.22C86.6001 100.38 87.0401 100.46 87.5867 100.46C87.8667 100.46 88.0667 100.54 88.1867 100.7C88.3201 100.847 88.3867 101.027 88.3867 101.24C88.3867 101.453 88.2934 101.653 88.1067 101.84C87.9201 102.013 87.6801 102.1 87.3867 102.1C86.9334 102.1 86.5267 102.04 86.1667 101.92C85.8201 101.787 85.5134 101.613 85.2467 101.4C84.9934 101.173 84.7801 100.92 84.6067 100.64C84.4467 100.347 84.3334 100.04 84.2667 99.72L84.6267 99.84C84.4801 100.44 84.2467 100.907 83.9267 101.24C83.6201 101.56 83.2534 101.787 82.8267 101.92C82.4001 102.04 81.9467 102.1 81.4667 102.1C80.8801 102.1 80.4001 102.027 80.0267 101.88C79.6534 101.733 79.3601 101.513 79.1467 101.22C78.9467 100.913 78.8134 100.527 78.7467 100.06H79.4267C79.1734 100.633 78.9067 101.067 78.6267 101.36C78.3467 101.653 78.0001 101.853 77.5867 101.96C77.1734 102.053 76.6267 102.1 75.9467 102.1C75.6134 102.1 75.2534 102.047 74.8667 101.94C74.4934 101.833 74.1667 101.627 73.8867 101.32C73.6067 101 73.4401 100.527 73.3867 99.9L73.9867 99.78C73.7601 100.46 73.4801 100.967 73.1467 101.3C72.8267 101.62 72.4401 101.833 71.9867 101.94C71.5334 102.047 71.0001 102.1 70.3867 102.1ZM79.0067 91.1C78.7267 91.1 78.4867 91.0067 78.2867 90.82C78.1001 90.62 78.0067 90.3867 78.0067 90.12C78.0067 89.8533 78.1001 89.62 78.2867 89.42C78.4867 89.22 78.7267 89.12 79.0067 89.12C79.2734 89.12 79.5001 89.22 79.6867 89.42C79.8867 89.62 79.9867 89.8533 79.9867 90.12C79.9867 90.3867 79.8867 90.62 79.6867 90.82C79.5001 91.0067 79.2734 91.1 79.0067 91.1ZM77.6467 93.3C77.3667 93.3 77.1267 93.2067 76.9267 93.02C76.7401 92.82 76.6467 92.5867 76.6467 92.32C76.6467 92.0533 76.7401 91.82 76.9267 91.62C77.1267 91.42 77.3667 91.32 77.6467 91.32C77.9134 91.32 78.1401 91.42 78.3267 91.62C78.5267 91.82 78.6267 92.0533 78.6267 92.32C78.6267 92.5867 78.5267 92.82 78.3267 93.02C78.1401 93.2067 77.9134 93.3 77.6467 93.3ZM80.3667 93.3C80.0867 93.3 79.8467 93.2067 79.6467 93.02C79.4601 92.82 79.3667 92.5867 79.3667 92.32C79.3667 92.0533 79.4601 91.82 79.6467 91.62C79.8467 91.42 80.0867 91.32 80.3667 91.32C80.6334 91.32 80.8601 91.42 81.0467 91.62C81.2467 91.82 81.3467 92.0533 81.3467 92.32C81.3467 92.5867 81.2467 92.82 81.0467 93.02C80.8601 93.2067 80.6334 93.3 80.3667 93.3ZM87.3789 102.1L87.5789 100.46C88.1389 100.46 88.5789 100.413 88.8989 100.32C89.2189 100.213 89.4589 100.02 89.6189 99.74C89.7922 99.4467 89.9389 99.0267 90.0589 98.48C90.1789 97.9333 90.3256 97.22 90.4989 96.34L92.0589 96.64C92.0056 96.88 91.9456 97.1467 91.8789 97.44C91.8122 97.7333 91.7522 98.0267 91.6989 98.32C91.6589 98.6 91.6389 98.8467 91.6389 99.06C91.6389 99.3267 91.6989 99.5667 91.8189 99.78C91.9389 99.9933 92.1989 100.16 92.5989 100.28C92.9989 100.4 93.6122 100.46 94.4389 100.46C94.7189 100.46 94.9189 100.54 95.0389 100.7C95.1722 100.847 95.2389 101.027 95.2389 101.24C95.2389 101.453 95.1456 101.653 94.9589 101.84C94.7722 102.013 94.5322 102.1 94.2389 102.1C93.3722 102.1 92.6922 102.027 92.1989 101.88C91.7056 101.72 91.3456 101.487 91.1189 101.18C90.8922 100.86 90.7389 100.473 90.6589 100.02L91.2589 100.06C91.0456 100.487 90.8122 100.833 90.5589 101.1C90.3189 101.367 90.0522 101.573 89.7589 101.72C89.4656 101.867 89.1256 101.967 88.7389 102.02C88.3522 102.073 87.8989 102.1 87.3789 102.1ZM90.4989 94.28C90.2189 94.28 89.9789 94.1867 89.7789 94C89.5922 93.8 89.4989 93.5667 89.4989 93.3C89.4989 93.0333 89.5922 92.8 89.7789 92.6C89.9789 92.4 90.2189 92.3 90.4989 92.3C90.7656 92.3 90.9922 92.4 91.1789 92.6C91.3789 92.8 91.4789 93.0333 91.4789 93.3C91.4789 93.5667 91.3789 93.8 91.1789 94C90.9922 94.1867 90.7656 94.28 90.4989 94.28ZM94.2344 102.1L94.4144 100.46C95.1744 100.46 95.7077 100.387 96.0144 100.24C96.321 100.093 96.4944 99.8333 96.5344 99.46C96.5877 99.0867 96.601 98.5667 96.5744 97.9L96.1944 87.72H97.8144L98.2144 97.72C98.241 98.4267 98.2144 99.0533 98.1344 99.6C98.0677 100.147 97.8944 100.607 97.6144 100.98C97.3477 101.353 96.941 101.633 96.3944 101.82C95.861 102.007 95.141 102.1 94.2344 102.1ZM101.27 102L100.87 87.72H102.49L102.89 102H101.27Z" fill="white"/>
</g>
</svg>
