<svg width="161" height="167" viewBox="0 0 161 167" fill="none" xmlns="http://www.w3.org/2000/svg">
<g id="Component 4">
<rect id="Rectangle 4138" opacity="0.9" width="161" height="167" rx="33" fill="#29253F"/>
<path id="&#217;&#136;&#216;&#173;&#216;&#175;&#216;&#169; &#216;&#167;&#217;&#132;&#216;&#170;&#216;&#175;&#216;&#177;&#217;&#138;&#216;&#168;" d="M32.8508 80.42L33.3708 78.78C34.1841 78.78 35.0441 78.7333 35.9508 78.64C36.8574 78.5333 37.7574 78.3533 38.6508 78.1C39.5574 77.8333 40.4174 77.4733 41.2308 77.02C42.0441 76.5667 42.7574 75.9933 43.3708 75.3L44.6308 76.04C44.5108 76.3467 44.4308 76.5933 44.3908 76.78C44.3508 76.9533 44.3308 77.1133 44.3308 77.26C44.3308 77.46 44.4041 77.6533 44.5508 77.84C44.6974 78.0133 44.9708 78.16 45.3708 78.28C45.7841 78.4 46.3641 78.46 47.1108 78.46C47.3908 78.46 47.5908 78.54 47.7108 78.7C47.8441 78.8467 47.9108 79.0267 47.9108 79.24C47.9108 79.4533 47.8174 79.6533 47.6308 79.84C47.4441 80.0133 47.2041 80.1 46.9108 80.1C46.0574 80.1 45.3041 80.0133 44.6508 79.84C44.0108 79.6533 43.5308 79.3667 43.2108 78.98C42.9041 78.58 42.8041 78.0667 42.9108 77.44L43.2708 77.56C42.7374 78.04 42.0974 78.46 41.3508 78.82C40.6174 79.1667 39.7974 79.46 38.8908 79.7C37.9974 79.94 37.0374 80.12 36.0108 80.24C34.9974 80.36 33.9441 80.42 32.8508 80.42ZM32.8508 80.42C31.6641 80.42 30.6174 80.34 29.7108 80.18C28.8174 80.0333 28.0708 79.8 27.4708 79.48C26.8708 79.16 26.4174 78.7467 26.1108 78.24C25.8041 77.72 25.6508 77.0933 25.6508 76.36C25.6508 76.0267 25.6774 75.6867 25.7308 75.34C25.7841 74.98 25.8508 74.62 25.9308 74.26C26.0241 73.9 26.1174 73.5533 26.2108 73.22L27.7108 73.6C27.6574 73.8 27.5974 74.04 27.5308 74.32C27.4641 74.5867 27.4041 74.86 27.3508 75.14C27.3108 75.42 27.2908 75.6733 27.2908 75.9C27.2908 76.5933 27.4641 77.1533 27.8108 77.58C28.1708 77.9933 28.7908 78.3 29.6708 78.5C30.5508 78.6867 31.7841 78.78 33.3708 78.78L33.7708 79.78L32.8508 80.42ZM34.3108 84.22C34.0308 84.22 33.7908 84.12 33.5908 83.92C33.4041 83.7333 33.3108 83.5067 33.3108 83.24C33.3108 82.9733 33.4041 82.74 33.5908 82.54C33.7908 82.34 34.0308 82.24 34.3108 82.24C34.5774 82.24 34.8041 82.34 34.9908 82.54C35.1908 82.74 35.2908 82.9733 35.2908 83.24C35.2908 83.5067 35.1908 83.7333 34.9908 83.92C34.8041 84.12 34.5774 84.22 34.3108 84.22ZM46.9062 80.1L47.1063 78.46C47.8929 78.46 48.5063 78.4333 48.9463 78.38C49.3863 78.3133 49.6996 78.16 49.8863 77.92C50.0729 77.6667 50.1663 77.2733 50.1663 76.74C50.1663 76.4067 50.1129 76.0133 50.0063 75.56C49.8996 75.0933 49.7596 74.6 49.5863 74.08C49.4129 73.56 49.2263 73.0467 49.0263 72.54L50.6463 71.94C50.8196 72.3667 50.9796 72.8533 51.1263 73.4C51.2863 73.9467 51.4196 74.4867 51.5263 75.02C51.6329 75.5533 51.6863 76.02 51.6863 76.42C51.6863 77.0867 51.5929 77.6533 51.4063 78.12C51.2329 78.5867 50.9529 78.9667 50.5663 79.26C50.1796 79.5533 49.6796 79.7667 49.0663 79.9C48.4663 80.0333 47.7463 80.1 46.9062 80.1ZM50.6063 83.88C50.3263 83.88 50.0863 83.78 49.8863 83.58C49.6996 83.3933 49.6063 83.1667 49.6063 82.9C49.6063 82.6333 49.6996 82.4 49.8863 82.2C50.0863 82 50.3263 81.9 50.6063 81.9C50.8729 81.9 51.0996 82 51.2863 82.2C51.4863 82.4 51.5863 82.6333 51.5863 82.9C51.5863 83.1667 51.4863 83.3933 51.2863 83.58C51.0996 83.78 50.8729 83.88 50.6063 83.88ZM47.8663 83.88C47.5863 83.88 47.3463 83.78 47.1463 83.58C46.9596 83.3933 46.8662 83.1667 46.8662 82.9C46.8662 82.6333 46.9596 82.4 47.1463 82.2C47.3463 82 47.5863 81.9 47.8663 81.9C48.1329 81.9 48.3596 82 48.5463 82.2C48.7463 82.4 48.8463 82.6333 48.8463 82.9C48.8463 83.1667 48.7463 83.3933 48.5463 83.58C48.3596 83.78 48.1329 83.88 47.8663 83.88ZM52.9628 84.6L52.3828 83.08C53.7295 82.6533 54.7628 82.14 55.4828 81.54C56.2161 80.9533 56.7161 80.34 56.9828 79.7C57.2628 79.06 57.4028 78.4467 57.4028 77.86C57.4028 77.4867 57.3628 77.1267 57.2828 76.78C57.2028 76.4333 57.0628 76.04 56.8628 75.6C56.6628 75.16 56.3828 74.6133 56.0228 73.96L57.4828 73.22C57.9895 74.0867 58.3495 74.9067 58.5628 75.68C58.7895 76.4533 58.9028 77.1333 58.9028 77.72C58.9028 78.56 58.7628 79.32 58.4828 80C58.2161 80.68 57.8561 81.28 57.4028 81.8C56.9628 82.3333 56.4761 82.7867 55.9428 83.16C55.4228 83.5333 54.8961 83.84 54.3628 84.08C53.8428 84.32 53.3761 84.4933 52.9628 84.6ZM64.5266 78.46C65.1932 78.46 65.7199 78.3933 66.1066 78.26C66.5066 78.1267 66.7932 77.9333 66.9666 77.68C67.1532 77.4133 67.2466 77.1067 67.2466 76.76C67.2466 76.4933 67.1732 76.1733 67.0266 75.8C66.8932 75.4267 66.7066 75.0133 66.4666 74.56C66.2266 74.0933 65.9466 73.6067 65.6266 73.1C65.3199 72.58 64.9866 72.0533 64.6266 71.52L66.0066 70.62C66.5266 71.4067 66.9799 72.1533 67.3666 72.86C67.7532 73.5533 68.0799 74.2067 68.3466 74.82C68.6132 75.42 68.8266 75.9867 68.9866 76.52C69.1732 77.1067 69.3799 77.54 69.6066 77.82C69.8466 78.1 70.0932 78.28 70.3466 78.36C70.5999 78.4267 70.8332 78.46 71.0466 78.46C71.3266 78.46 71.5332 78.54 71.6666 78.7C71.7999 78.8467 71.8666 79.0267 71.8666 79.24C71.8666 79.4533 71.7732 79.6533 71.5866 79.84C71.3999 80.0133 71.1599 80.1 70.8666 80.1C70.4266 80.1 69.9932 80.02 69.5666 79.86C69.1532 79.6867 68.7932 79.4133 68.4866 79.04C68.1799 78.6533 67.9666 78.14 67.8466 77.5L68.6466 76.86C68.6466 77.3933 68.5332 77.9133 68.3066 78.42C68.0799 78.9133 67.6666 79.32 67.0666 79.64C66.4799 79.96 65.6332 80.12 64.5266 80.12C64.0466 80.12 63.5799 80.08 63.1266 80C62.6866 79.92 62.2799 79.8067 61.9066 79.66C61.5332 79.5 61.2066 79.3133 60.9266 79.1L61.7266 77.72C61.9932 77.8933 62.3666 78.06 62.8466 78.22C63.3266 78.38 63.8866 78.46 64.5266 78.46ZM70.8711 80.1L71.0711 78.46C71.7378 78.46 72.2578 78.4133 72.6311 78.32C73.0044 78.2133 73.2844 78.02 73.4711 77.74C73.6711 77.4467 73.8311 77.0267 73.9511 76.48C74.0711 75.9333 74.2178 75.22 74.3911 74.34L75.9511 74.64C75.8978 74.88 75.8378 75.1467 75.7711 75.44C75.7044 75.7333 75.6444 76.0267 75.5911 76.32C75.5511 76.6 75.5311 76.8467 75.5311 77.06C75.5311 77.26 75.5444 77.4467 75.5711 77.62C75.5978 77.7933 75.6978 77.94 75.8711 78.06C76.0444 78.18 76.3378 78.28 76.7511 78.36C77.1644 78.4267 77.7578 78.46 78.5311 78.46C78.8111 78.46 79.0111 78.54 79.1311 78.7C79.2644 78.8467 79.3311 79.0267 79.3311 79.24C79.3311 79.4533 79.2378 79.6533 79.0511 79.84C78.8644 80.0133 78.6244 80.1 78.3311 80.1C77.5178 80.1 76.8711 80.06 76.3911 79.98C75.9111 79.8867 75.5444 79.7533 75.2911 79.58C75.0511 79.4067 74.8778 79.1933 74.7711 78.94C74.6778 78.6733 74.6044 78.3667 74.5511 78.02L75.1511 78.06C74.9378 78.4867 74.7044 78.8333 74.4511 79.1C74.2111 79.3667 73.9311 79.5733 73.6111 79.72C73.2911 79.8667 72.9044 79.9667 72.4511 80.02C72.0111 80.0733 71.4844 80.1 70.8711 80.1ZM76.2111 72.28C75.9311 72.28 75.6911 72.1867 75.4911 72C75.3044 71.8 75.2111 71.5667 75.2111 71.3C75.2111 71.0333 75.3044 70.8 75.4911 70.6C75.6911 70.4 75.9311 70.3 76.2111 70.3C76.4778 70.3 76.7044 70.4 76.8911 70.6C77.0911 70.8 77.1911 71.0333 77.1911 71.3C77.1911 71.5667 77.0911 71.8 76.8911 72C76.7044 72.1867 76.4778 72.28 76.2111 72.28ZM73.4711 72.28C73.1911 72.28 72.9511 72.1867 72.7511 72C72.5644 71.8 72.4711 71.5667 72.4711 71.3C72.4711 71.0333 72.5644 70.8 72.7511 70.6C72.9511 70.4 73.1911 70.3 73.4711 70.3C73.7378 70.3 73.9644 70.4 74.1511 70.6C74.3511 70.8 74.4511 71.0333 74.4511 71.3C74.4511 71.5667 74.3511 71.8 74.1511 72C73.9644 72.1867 73.7378 72.28 73.4711 72.28ZM78.332 80.1L78.512 78.46C79.272 78.46 79.8054 78.3867 80.112 78.24C80.4187 78.0933 80.592 77.8333 80.632 77.46C80.6854 77.0867 80.6987 76.5667 80.672 75.9L80.292 65.72H81.912L82.312 75.72C82.3387 76.4267 82.312 77.0533 82.232 77.6C82.1654 78.1467 81.992 78.6067 81.712 78.98C81.4454 79.3533 81.0387 79.6333 80.492 79.82C79.9587 80.0067 79.2387 80.1 78.332 80.1ZM85.3673 80L84.9673 65.72H86.5873L86.9873 80H85.3673ZM97.5673 80C96.914 80 96.3273 79.8867 95.8073 79.66C95.2873 79.4333 94.874 79.0867 94.5673 78.62C94.274 78.1533 94.1273 77.56 94.1273 76.84C94.1273 76.2667 94.3473 75.5533 94.7873 74.7C95.2273 73.8333 95.994 72.92 97.0873 71.96L97.4673 73.04L96.1073 71.82L97.1473 70.58C97.8407 71.1267 98.4807 71.7133 99.0673 72.34C99.654 72.9667 100.127 73.6333 100.487 74.34C100.847 75.0467 101.027 75.7933 101.027 76.58C101.027 76.8867 100.974 77.2333 100.867 77.62C100.761 78.0067 100.581 78.3867 100.327 78.76C100.074 79.12 99.7207 79.42 99.2673 79.66C98.814 79.8867 98.2473 80 97.5673 80ZM97.5673 78.36C98.0207 78.36 98.394 78.2867 98.6873 78.14C98.994 77.98 99.2207 77.76 99.3673 77.48C99.5273 77.2 99.6073 76.8733 99.6073 76.5C99.6073 76.1667 99.5473 75.82 99.4273 75.46C99.3207 75.0867 99.094 74.6867 98.7473 74.26C98.414 73.82 97.9007 73.3267 97.2073 72.78L98.0873 72.74C97.594 73.1667 97.1673 73.62 96.8073 74.1C96.4473 74.5667 96.174 75.0267 95.9873 75.48C95.8007 75.92 95.7073 76.32 95.7073 76.68C95.7073 77.24 95.8807 77.66 96.2273 77.94C96.5873 78.22 97.034 78.36 97.5673 78.36ZM99.0873 68.8C98.8073 68.8 98.5673 68.7067 98.3673 68.52C98.1807 68.32 98.0873 68.0867 98.0873 67.82C98.0873 67.5533 98.1807 67.32 98.3673 67.12C98.5673 66.92 98.8073 66.82 99.0873 66.82C99.354 66.82 99.5807 66.92 99.7673 67.12C99.9673 67.32 100.067 67.5533 100.067 67.82C100.067 68.0867 99.9673 68.32 99.7673 68.52C99.5807 68.7067 99.354 68.8 99.0873 68.8ZM96.3473 68.8C96.0673 68.8 95.8273 68.7067 95.6273 68.52C95.4407 68.32 95.3473 68.0867 95.3473 67.82C95.3473 67.5533 95.4407 67.32 95.6273 67.12C95.8273 66.92 96.0673 66.82 96.3473 66.82C96.614 66.82 96.8407 66.92 97.0273 67.12C97.2273 67.32 97.3273 67.5533 97.3273 67.82C97.3273 68.0867 97.2273 68.32 97.0273 68.52C96.8407 68.7067 96.614 68.8 96.3473 68.8ZM105.933 78.46C106.599 78.46 107.126 78.3933 107.513 78.26C107.913 78.1267 108.199 77.9333 108.373 77.68C108.559 77.4133 108.653 77.1067 108.653 76.76C108.653 76.4933 108.579 76.1733 108.433 75.8C108.299 75.4267 108.113 75.0133 107.873 74.56C107.633 74.0933 107.353 73.6067 107.033 73.1C106.726 72.58 106.393 72.0533 106.033 71.52L107.413 70.62C107.933 71.4067 108.386 72.1533 108.773 72.86C109.159 73.5533 109.486 74.2067 109.753 74.82C110.019 75.42 110.233 75.9867 110.393 76.52C110.579 77.1067 110.786 77.54 111.013 77.82C111.253 78.1 111.499 78.28 111.753 78.36C112.006 78.4267 112.239 78.46 112.453 78.46C112.733 78.46 112.939 78.54 113.073 78.7C113.206 78.8467 113.273 79.0267 113.273 79.24C113.273 79.4533 113.179 79.6533 112.993 79.84C112.806 80.0133 112.566 80.1 112.273 80.1C111.833 80.1 111.399 80.02 110.973 79.86C110.559 79.6867 110.199 79.4133 109.893 79.04C109.586 78.6533 109.373 78.14 109.253 77.5L110.053 76.86C110.053 77.3933 109.939 77.9133 109.713 78.42C109.486 78.9133 109.073 79.32 108.473 79.64C107.886 79.96 107.039 80.12 105.933 80.12C105.453 80.12 104.986 80.08 104.533 80C104.093 79.92 103.686 79.8067 103.313 79.66C102.939 79.5 102.613 79.3133 102.333 79.1L103.133 77.72C103.399 77.8933 103.773 78.06 104.253 78.22C104.733 78.38 105.293 78.46 105.933 78.46ZM112.277 80.1L112.457 78.46C113.151 78.46 113.831 78.4067 114.497 78.3C115.164 78.1933 115.817 78.04 116.457 77.84C117.097 77.64 117.711 77.4 118.297 77.12C118.897 76.8267 119.464 76.4933 119.997 76.12C119.651 75.8133 119.251 75.5467 118.797 75.32C118.344 75.0933 117.844 74.92 117.297 74.8C116.764 74.6667 116.197 74.6 115.597 74.6C115.384 74.6 115.184 74.6067 114.997 74.62C114.811 74.6333 114.624 74.66 114.437 74.7C114.251 74.7267 114.037 74.7667 113.797 74.82L113.477 73.3C113.837 73.1933 114.197 73.1133 114.557 73.06C114.917 72.9933 115.264 72.96 115.597 72.96C116.291 72.96 116.917 73.0467 117.477 73.22C118.037 73.38 118.544 73.58 118.997 73.82C119.464 74.06 119.897 74.3 120.297 74.54C120.711 74.78 121.111 74.9867 121.497 75.16C121.884 75.32 122.284 75.4 122.697 75.4H123.117L123.257 76.84C122.684 76.84 122.157 76.92 121.677 77.08C121.197 77.24 120.724 77.4467 120.257 77.7C119.804 77.94 119.324 78.2 118.817 78.48C118.311 78.7467 117.751 79.0067 117.137 79.26C116.524 79.5 115.817 79.7 115.017 79.86C114.231 80.02 113.317 80.1 112.277 80.1ZM125.215 84.6L124.855 82.96C125.655 82.8533 126.388 82.7 127.055 82.5C127.735 82.3133 128.315 82.04 128.795 81.68C129.288 81.32 129.668 80.8467 129.935 80.26C130.201 79.6733 130.335 78.94 130.335 78.06C130.335 77.6467 130.295 77.2533 130.215 76.88C130.135 76.4933 130.015 76.1533 129.855 75.86C129.695 75.5667 129.501 75.3333 129.275 75.16C129.061 74.9867 128.815 74.9 128.535 74.9C128.228 74.9 127.948 75.02 127.695 75.26C127.455 75.4867 127.261 75.78 127.115 76.14C126.981 76.5 126.915 76.86 126.915 77.22C126.915 77.5 126.968 77.7467 127.075 77.96C127.195 78.16 127.388 78.3133 127.655 78.42C127.921 78.5267 128.268 78.58 128.695 78.58C129.081 78.58 129.468 78.54 129.855 78.46C130.255 78.38 130.595 78.2733 130.875 78.14L130.955 79.54C130.635 79.7667 130.255 79.9267 129.815 80.02C129.388 80.1133 128.955 80.16 128.515 80.16C128.008 80.16 127.555 80.1067 127.155 80C126.768 79.8933 126.435 79.74 126.155 79.54C125.888 79.3267 125.681 79.06 125.535 78.74C125.401 78.42 125.335 78.0467 125.335 77.62C125.335 77.1133 125.415 76.6067 125.575 76.1C125.735 75.58 125.961 75.1067 126.255 74.68C126.548 74.2533 126.901 73.9133 127.315 73.66C127.728 73.3933 128.188 73.26 128.695 73.26C129.228 73.26 129.695 73.4 130.095 73.68C130.495 73.9467 130.828 74.3133 131.095 74.78C131.361 75.2467 131.561 75.7733 131.695 76.36C131.828 76.9467 131.895 77.5533 131.895 78.18C131.895 79.42 131.641 80.4867 131.135 81.38C130.641 82.2867 129.895 83.0067 128.895 83.54C127.908 84.0733 126.681 84.4267 125.215 84.6Z" fill="white"/>
</g>
</svg>
