<svg width="161" height="167" viewBox="0 0 161 167" fill="none" xmlns="http://www.w3.org/2000/svg">
<g id="Component 5">
<rect id="Rectangle 4139" opacity="0.9" width="161" height="167" rx="33" fill="#29253F"/>
<path id=" &#217;&#132;&#216;&#172;&#217;&#134;&#216;&#169; &#216;&#167;&#217;&#132;&#216;&#163;&#216;&#185;&#216;&#176;&#216;&#167;&#216;&#177;" d="M38.8808 79.6L38.3008 78.08C39.6474 77.6533 40.6808 77.14 41.4008 76.54C42.1341 75.9533 42.6341 75.34 42.9008 74.7C43.1808 74.06 43.3208 73.4467 43.3208 72.86C43.3208 72.4867 43.2808 72.1267 43.2008 71.78C43.1208 71.4333 42.9808 71.04 42.7808 70.6C42.5808 70.16 42.3008 69.6133 41.9408 68.96L43.4008 68.22C43.9074 69.0867 44.2674 69.9067 44.4808 70.68C44.7074 71.4533 44.8208 72.1333 44.8208 72.72C44.8208 73.56 44.6808 74.32 44.4008 75C44.1341 75.68 43.7741 76.28 43.3208 76.8C42.8808 77.3333 42.3941 77.7867 41.8608 78.16C41.3408 78.5333 40.8141 78.84 40.2808 79.08C39.7608 79.32 39.2941 79.4933 38.8808 79.6ZM47.9845 75L47.5845 60.72H49.2045L49.6045 75H47.9845ZM55.2102 73.46C55.8768 73.46 56.4035 73.3933 56.7902 73.26C57.1902 73.1267 57.4768 72.9333 57.6502 72.68C57.8368 72.4133 57.9302 72.1067 57.9302 71.76C57.9302 71.4933 57.8568 71.1733 57.7102 70.8C57.5768 70.4267 57.3902 70.0133 57.1502 69.56C56.9102 69.0933 56.6302 68.6067 56.3102 68.1C56.0035 67.58 55.6702 67.0533 55.3102 66.52L56.6902 65.62C57.2102 66.4067 57.6635 67.1533 58.0502 67.86C58.4368 68.5533 58.7635 69.2067 59.0302 69.82C59.2968 70.42 59.5102 70.9867 59.6702 71.52C59.8568 72.1067 60.0635 72.54 60.2902 72.82C60.5302 73.1 60.7768 73.28 61.0302 73.36C61.2835 73.4267 61.5168 73.46 61.7302 73.46C62.0102 73.46 62.2168 73.54 62.3502 73.7C62.4835 73.8467 62.5502 74.0267 62.5502 74.24C62.5502 74.4533 62.4568 74.6533 62.2702 74.84C62.0835 75.0133 61.8435 75.1 61.5502 75.1C61.1102 75.1 60.6768 75.02 60.2502 74.86C59.8368 74.6867 59.4768 74.4133 59.1702 74.04C58.8635 73.6533 58.6502 73.14 58.5302 72.5L59.3302 71.86C59.3302 72.3933 59.2168 72.9133 58.9902 73.42C58.7635 73.9133 58.3502 74.32 57.7502 74.64C57.1635 74.96 56.3168 75.12 55.2102 75.12C54.7302 75.12 54.2635 75.08 53.8102 75C53.3702 74.92 52.9635 74.8067 52.5902 74.66C52.2168 74.5 51.8902 74.3133 51.6102 74.1L52.4102 72.72C52.6768 72.8933 53.0502 73.06 53.5302 73.22C54.0102 73.38 54.5702 73.46 55.2102 73.46ZM55.3302 63.8C55.0502 63.8 54.8102 63.7067 54.6102 63.52C54.4235 63.32 54.3302 63.0867 54.3302 62.82C54.3302 62.5533 54.4235 62.32 54.6102 62.12C54.8102 61.92 55.0502 61.82 55.3302 61.82C55.5968 61.82 55.8235 61.92 56.0102 62.12C56.2102 62.32 56.3102 62.5533 56.3102 62.82C56.3102 63.0867 56.2102 63.32 56.0102 63.52C55.8235 63.7067 55.5968 63.8 55.3302 63.8ZM61.5547 75.1L61.7547 73.46C62.5947 73.46 63.2414 73.4533 63.6947 73.44C64.1614 73.4267 64.5014 73.4133 64.7147 73.4C64.928 73.3733 65.0747 73.36 65.1547 73.36C64.9147 73.2267 64.6347 73.02 64.3147 72.74C63.9947 72.4467 63.7147 72.08 63.4747 71.64C63.2347 71.1867 63.1147 70.6533 63.1147 70.04C63.1147 69.28 63.288 68.6133 63.6347 68.04C63.9947 67.4667 64.4814 67.02 65.0947 66.7C65.7214 66.38 66.4347 66.22 67.2347 66.22C67.5414 66.22 67.868 66.2467 68.2147 66.3C68.5614 66.3533 68.8947 66.4333 69.2147 66.54L68.8747 68.08C68.608 68.0133 68.328 67.96 68.0347 67.92C67.7414 67.88 67.4747 67.86 67.2347 67.86C66.7547 67.86 66.328 67.9533 65.9547 68.14C65.5814 68.3133 65.288 68.56 65.0747 68.88C64.8614 69.2 64.7547 69.5867 64.7547 70.04C64.7547 70.3867 64.828 70.7067 64.9747 71C65.1214 71.28 65.3147 71.5333 65.5547 71.76C65.7947 71.9867 66.0614 72.1733 66.3547 72.32C66.648 72.4667 66.9347 72.58 67.2147 72.66C67.508 72.74 67.768 72.7733 67.9947 72.76C68.1547 72.7067 68.3014 72.66 68.4347 72.62C68.568 72.58 68.7147 72.5333 68.8747 72.48C69.048 72.4133 69.2547 72.3267 69.4947 72.22C69.748 72.1133 70.068 71.9733 70.4547 71.8L71.0147 73.26C70.1214 73.62 69.208 73.94 68.2747 74.22C67.3547 74.5 66.348 74.72 65.2547 74.88C64.1747 75.0267 62.9414 75.1 61.5547 75.1ZM79.4733 64.28C79.4733 63.9867 79.4533 63.6333 79.4133 63.22C79.3733 62.8067 79.3266 62.3933 79.2733 61.98C79.2199 61.5667 79.1666 61.2133 79.1133 60.92L80.8333 60.72C80.8733 60.9867 80.9133 61.34 80.9533 61.78C81.0066 62.2067 81.0466 62.6333 81.0733 63.06C81.0999 63.4867 81.1133 63.84 81.1133 64.12C81.1133 64.76 81.0666 65.3867 80.9733 66C80.8933 66.6 80.7599 67.1933 80.5733 67.78C80.3866 68.3533 80.1399 68.9133 79.8333 69.46L79.5933 69.9C79.2199 70.5267 78.7599 71.1333 78.2133 71.72C77.6666 72.2933 77.0266 72.84 76.2933 73.36H78.8133C79.2666 73.36 79.6133 73.3067 79.8533 73.2C80.0933 73.08 80.2533 72.9267 80.3333 72.74C80.4266 72.5533 80.4733 72.3533 80.4733 72.14C80.4733 71.78 80.2533 71.3333 79.8133 70.8C79.3866 70.2533 78.7933 69.6533 78.0333 69C77.2733 68.3333 76.4133 67.6333 75.4533 66.9C74.4933 66.1667 73.4799 65.42 72.4133 64.66L73.3533 63.34C74.5799 64.2467 75.6599 65.0667 76.5933 65.8C77.5399 66.5333 78.3466 67.2067 79.0133 67.82C79.6933 68.42 80.2466 68.98 80.6733 69.5C81.1133 70.0067 81.4333 70.4933 81.6333 70.96C81.8466 71.4133 81.9533 71.86 81.9533 72.3C81.9533 72.5933 81.8999 72.9 81.7933 73.22C81.6999 73.5267 81.5266 73.82 81.2733 74.1C81.0333 74.3667 80.6866 74.5867 80.2333 74.76C79.7933 74.92 79.2199 75 78.5133 75H73.9133V73.38C75.2866 72.3933 76.3733 71.4333 77.1733 70.5C77.9866 69.5667 78.5733 68.5933 78.9333 67.58C79.2933 66.5667 79.4733 65.4667 79.4733 64.28ZM72.1333 62.28L71.8933 61.2C72.2399 61.12 72.5199 61.0533 72.7333 61C72.9466 60.9467 73.1866 60.8867 73.4533 60.82L73.3533 61.24C73.0066 61.1333 72.6733 60.9067 72.3533 60.56C72.0466 60.2133 71.8933 59.82 71.8933 59.38C71.8933 58.98 71.9866 58.6467 72.1733 58.38C72.3733 58.1 72.6266 57.8933 72.9333 57.76C73.2533 57.6267 73.5933 57.56 73.9533 57.56C74.0999 57.56 74.2533 57.5733 74.4133 57.6C74.5866 57.6267 74.7466 57.6667 74.8933 57.72L74.7333 58.72C74.5999 58.6933 74.4733 58.6667 74.3533 58.64C74.2333 58.6133 74.0999 58.6 73.9533 58.6C73.6466 58.6 73.4066 58.6667 73.2333 58.8C73.0599 58.92 72.9733 59.0933 72.9733 59.32C72.9733 59.6 73.0599 59.84 73.2333 60.04C73.4199 60.24 73.6266 60.4 73.8533 60.52C74.0933 60.6267 74.2866 60.68 74.4333 60.68L73.6133 60.76C73.9733 60.6667 74.3066 60.5733 74.6133 60.48C74.9333 60.3733 75.2199 60.2733 75.4733 60.18L75.7933 61.2C75.4733 61.32 75.0933 61.4467 74.6533 61.58C74.2266 61.7133 73.7933 61.84 73.3533 61.96C72.9133 62.08 72.5066 62.1867 72.1333 62.28ZM85.0939 75L84.6939 60.72H86.3139L86.7139 75H85.0939ZM102.974 75.1C102.254 75.1 101.614 75 101.054 74.8C100.507 74.5867 100.067 74.2333 99.7339 73.74C99.4139 73.2333 99.2339 72.5333 99.1939 71.64L98.8739 64.68H100.494L100.814 71.28C100.854 71.9067 100.967 72.38 101.154 72.7C101.341 73.0067 101.601 73.2133 101.934 73.32C102.281 73.4133 102.694 73.46 103.174 73.46C103.454 73.46 103.654 73.54 103.774 73.7C103.907 73.8467 103.974 74.0267 103.974 74.24C103.974 74.4533 103.881 74.6533 103.694 74.84C103.507 75.0133 103.267 75.1 102.974 75.1ZM99.9539 72.9C99.1939 73.14 98.4539 73.26 97.7339 73.26C97.0139 73.26 96.3606 73.1533 95.7739 72.94C95.1872 72.7267 94.7206 72.42 94.3739 72.02C94.0272 71.6067 93.8539 71.1133 93.8539 70.54C93.8539 69.98 93.9939 69.4533 94.2739 68.96C94.5672 68.4667 94.9606 68.0267 95.4539 67.64C95.9606 67.2533 96.5406 66.9333 97.1939 66.68C97.8606 66.4133 98.5672 66.2333 99.3139 66.14L99.5939 67.82C98.9272 67.8467 98.3339 67.94 97.8139 68.1C97.3072 68.2467 96.8739 68.44 96.5139 68.68C96.1672 68.92 95.9006 69.18 95.7139 69.46C95.5272 69.74 95.4339 70.0133 95.4339 70.28C95.4339 70.5733 95.5406 70.8133 95.7539 71C95.9672 71.1867 96.2406 71.3333 96.5739 71.44C96.9072 71.5333 97.2739 71.5933 97.6739 71.62C98.0739 71.6333 98.4606 71.62 98.8339 71.58C99.2072 71.5267 99.5272 71.4533 99.7939 71.36L99.9539 72.9ZM99.5339 62.38C99.2539 62.38 99.0139 62.2867 98.8139 62.1C98.6272 61.9 98.5339 61.6667 98.5339 61.4C98.5339 61.1333 98.6272 60.9 98.8139 60.7C99.0139 60.5 99.2539 60.4 99.5339 60.4C99.8006 60.4 100.027 60.5 100.214 60.7C100.414 60.9 100.514 61.1333 100.514 61.4C100.514 61.6667 100.414 61.9 100.214 62.1C100.027 62.2867 99.8006 62.38 99.5339 62.38ZM96.7939 62.38C96.5139 62.38 96.2739 62.2867 96.0739 62.1C95.8872 61.9 95.7939 61.6667 95.7939 61.4C95.7939 61.1333 95.8872 60.9 96.0739 60.7C96.2739 60.5 96.5139 60.4 96.7939 60.4C97.0606 60.4 97.2872 60.5 97.4739 60.7C97.6739 60.9 97.7739 61.1333 97.7739 61.4C97.7739 61.6667 97.6739 61.9 97.4739 62.1C97.2872 62.2867 97.0606 62.38 96.7939 62.38ZM102.98 75.1L103.18 73.46C103.74 73.46 104.18 73.4133 104.5 73.32C104.82 73.2133 105.06 73.02 105.22 72.74C105.394 72.4467 105.54 72.0267 105.66 71.48C105.78 70.9333 105.927 70.22 106.1 69.34L107.66 69.64C107.607 69.88 107.547 70.1467 107.48 70.44C107.414 70.7333 107.354 71.0267 107.3 71.32C107.26 71.6 107.24 71.8467 107.24 72.06C107.24 72.3267 107.3 72.5667 107.42 72.78C107.54 72.9933 107.8 73.16 108.2 73.28C108.6 73.4 109.214 73.46 110.04 73.46C110.32 73.46 110.52 73.54 110.64 73.7C110.774 73.8467 110.84 74.0267 110.84 74.24C110.84 74.4533 110.747 74.6533 110.56 74.84C110.374 75.0133 110.134 75.1 109.84 75.1C108.974 75.1 108.294 75.0267 107.8 74.88C107.307 74.72 106.947 74.4867 106.72 74.18C106.494 73.86 106.34 73.4733 106.26 73.02L106.86 73.06C106.647 73.4867 106.414 73.8333 106.16 74.1C105.92 74.3667 105.654 74.5733 105.36 74.72C105.067 74.8667 104.727 74.9667 104.34 75.02C103.954 75.0733 103.5 75.1 102.98 75.1ZM106.1 67.28C105.82 67.28 105.58 67.1867 105.38 67C105.194 66.8 105.1 66.5667 105.1 66.3C105.1 66.0333 105.194 65.8 105.38 65.6C105.58 65.4 105.82 65.3 106.1 65.3C106.367 65.3 106.594 65.4 106.78 65.6C106.98 65.8 107.08 66.0333 107.08 66.3C107.08 66.5667 106.98 66.8 106.78 67C106.594 67.1867 106.367 67.28 106.1 67.28ZM122.576 75.1C122.016 75.1 121.503 75.0667 121.036 75C120.569 74.92 120.149 74.78 119.776 74.58C119.403 74.38 119.089 74.0933 118.836 73.72C118.583 73.3333 118.389 72.8267 118.256 72.2L119.436 71.5C119.609 72.0333 119.823 72.44 120.076 72.72C120.329 73 120.669 73.1933 121.096 73.3C121.536 73.4067 122.096 73.46 122.776 73.46C123.056 73.46 123.256 73.54 123.376 73.7C123.509 73.8467 123.576 74.0267 123.576 74.24C123.576 74.4533 123.483 74.6533 123.296 74.84C123.109 75.0133 122.869 75.1 122.576 75.1ZM109.836 75.1L110.016 73.46C110.709 73.46 111.389 73.4067 112.056 73.3C112.723 73.1933 113.376 73.04 114.016 72.84C114.656 72.64 115.269 72.4 115.856 72.12C116.456 71.8267 117.023 71.4933 117.556 71.12C117.209 70.8133 116.809 70.5467 116.356 70.32C115.903 70.0933 115.403 69.92 114.856 69.8C114.323 69.6667 113.756 69.6 113.156 69.6C112.943 69.6 112.743 69.6067 112.556 69.62C112.369 69.6333 112.183 69.66 111.996 69.7C111.809 69.7267 111.596 69.7667 111.356 69.82L111.036 68.3C111.396 68.1933 111.756 68.1133 112.116 68.06C112.476 67.9933 112.823 67.96 113.156 67.96C113.849 67.96 114.476 68.0467 115.036 68.22C115.596 68.38 116.103 68.58 116.556 68.82C117.023 69.06 117.456 69.3 117.856 69.54C118.269 69.78 118.669 69.9867 119.056 70.16C119.443 70.32 119.843 70.4 120.256 70.4H120.676L120.816 71.84C120.243 71.84 119.716 71.92 119.236 72.08C118.756 72.24 118.283 72.4467 117.816 72.7C117.363 72.94 116.883 73.2 116.376 73.48C115.869 73.7467 115.309 74.0067 114.696 74.26C114.083 74.5 113.376 74.7 112.576 74.86C111.789 75.02 110.876 75.1 109.836 75.1ZM115.056 78.72C114.776 78.72 114.536 78.62 114.336 78.42C114.149 78.2333 114.056 78.0067 114.056 77.74C114.056 77.4733 114.149 77.24 114.336 77.04C114.536 76.84 114.776 76.74 115.056 76.74C115.323 76.74 115.549 76.84 115.736 77.04C115.936 77.24 116.036 77.4733 116.036 77.74C116.036 78.0067 115.936 78.2333 115.736 78.42C115.549 78.62 115.323 78.72 115.056 78.72ZM122.57 75.1L122.75 73.46C123.51 73.46 124.044 73.3867 124.35 73.24C124.657 73.0933 124.83 72.8333 124.87 72.46C124.924 72.0867 124.937 71.5667 124.91 70.9L124.53 60.72H126.15L126.55 70.72C126.577 71.4267 126.55 72.0533 126.47 72.6C126.404 73.1467 126.23 73.6067 125.95 73.98C125.684 74.3533 125.277 74.6333 124.73 74.82C124.197 75.0067 123.477 75.1 122.57 75.1Z" fill="white"/>
</g>
</svg>
